<svg xmlns="http://www.w3.org/2000/svg" width="1457" height="1448" viewBox="0 0 1457 1448">
  <g id="Group_31" data-name="Group 31" transform="translate(-232 -16)">
    <g id="Group_20" data-name="Group 20">
      <g id="Group_16" data-name="Group 16">
        <g id="Group_15" data-name="Group 15">
          <g id="Group_14" data-name="Group 14">
            <g id="Group_12" data-name="Group 12" transform="translate(2050.668 2368.27)">
              <rect id="Rectangle_1" data-name="Rectangle 1" width="1443" height="1444" transform="translate(-1817.668 -2348.27)" fill="#fff"/>
              <path id="Rectangle_2" data-name="Rectangle 2" d="M0,0H1397a60,60,0,0,1,60,60v60a0,0,0,0,1,0,0H0a0,0,0,0,1,0,0V0A0,0,0,0,1,0,0Z" transform="translate(-1818.668 -2352.27)" fill="#3e64ff"/>
              <path id="Rectangle_3" data-name="Rectangle 3" d="M0,0H1444a0,0,0,0,1,0,0V60a60,60,0,0,1-60,60H0a0,0,0,0,1,0,0V0A0,0,0,0,1,0,0Z" transform="translate(-1698.668 -2352.27) rotate(90)" fill="#3e64ff"/>
              <g id="Group_1" data-name="Group 1" transform="translate(-1673 -2337)">
                <path id="Path_1" data-name="Path 1" d="M45,0A45,45,0,1,1,0,45,45,45,0,0,1,45,0Z" fill="#fff"/>
                <circle id="Ellipse_4" data-name="Ellipse 4" cx="45" cy="45" r="45" transform="translate(128.332 -0.27)" fill="#fff"/>
                <circle id="Ellipse_5" data-name="Ellipse 5" cx="45" cy="45" r="45" transform="translate(260.332 -0.27)" fill="#fff"/>
                <circle id="Ellipse_6" data-name="Ellipse 6" cx="45" cy="45" r="45" transform="translate(389.332 -0.27)" fill="#fff"/>
                <circle id="Ellipse_7" data-name="Ellipse 7" cx="45" cy="45" r="45" transform="translate(519.332 -0.27)" fill="#fff"/>
                <circle id="Ellipse_8" data-name="Ellipse 8" cx="45" cy="45" r="45" transform="translate(649.332 -0.27)" fill="#fff"/>
                <circle id="Ellipse_9" data-name="Ellipse 9" cx="45" cy="45" r="45" transform="translate(779.332 -0.27)" fill="#fff"/>
                <circle id="Ellipse_10" data-name="Ellipse 10" cx="45" cy="45" r="45" transform="translate(909.332 -0.27)" fill="#fff"/>
                <circle id="Ellipse_11" data-name="Ellipse 11" cx="45" cy="45" r="45" transform="translate(1041.332 -0.27)" fill="#fff"/>
                <circle id="Ellipse_12" data-name="Ellipse 12" cx="45" cy="45" r="45" transform="translate(1169.332 -0.27)" fill="#fff"/>
              </g>
              <g id="Group_2" data-name="Group 2" transform="translate(-1714 -2210) rotate(90)">
                <circle id="Ellipse_3" data-name="Ellipse 3" cx="45" cy="45" r="45" transform="translate(-0.27 -0.332)" fill="#fff"/>
                <circle id="Ellipse_4-2" data-name="Ellipse 4" cx="45" cy="45" r="45" transform="translate(127.73 -0.332)" fill="#fff"/>
                <circle id="Ellipse_5-2" data-name="Ellipse 5" cx="45" cy="45" r="45" transform="translate(256.73 -0.332)" fill="#fff"/>
                <circle id="Ellipse_6-2" data-name="Ellipse 6" cx="45" cy="45" r="45" transform="translate(384.73 -0.332)" fill="#fff"/>
                <circle id="Ellipse_7-2" data-name="Ellipse 7" cx="45" cy="45" r="45" transform="translate(513.73 -0.332)" fill="#fff"/>
                <circle id="Ellipse_8-2" data-name="Ellipse 8" cx="45" cy="45" r="45" transform="translate(641.73 -0.332)" fill="#fff"/>
                <circle id="Ellipse_9-2" data-name="Ellipse 9" cx="45" cy="45" r="45" transform="translate(770.73 -0.332)" fill="#fff"/>
                <circle id="Ellipse_10-2" data-name="Ellipse 10" cx="45" cy="45" r="45" transform="translate(898.73 -0.332)" fill="#fff"/>
                <circle id="Ellipse_11-2" data-name="Ellipse 11" cx="45" cy="45" r="45" transform="translate(1023.73 -0.332)" fill="#fff"/>
                <circle id="Ellipse_12-2" data-name="Ellipse 12" cx="45" cy="45" r="45" transform="translate(1151.73 -0.332)" fill="#fff"/>
              </g>
              <g id="Group_3" data-name="Group 3" transform="translate(-1644 -2328)">
                <text id="_1" data-name="1" transform="translate(14.332 53.73)" font-size="50" font-family="NirmalaUI-Bold, Nirmala UI" title="apple" font-weight="700"><tspan x="-14.38" y="0">1</tspan></text>
                <text id="_2" data-name="2" transform="translate(144.332 53.73)" fill="#020202" font-size="50" font-family="NirmalaUI-Bold, Nirmala UI" font-weight="700"><tspan x="-14.38" y="0">2</tspan></text>
                <text id="_3" data-name="3" transform="translate(278.332 53.73)" fill="#020202" font-size="50" font-family="NirmalaUI-Bold, Nirmala UI" font-weight="700"><tspan x="-14.38" y="0">3</tspan></text>
                <text id="_4" data-name="4" transform="translate(405.332 53.73)" fill="#020202" font-size="50" font-family="NirmalaUI-Bold, Nirmala UI" font-weight="700"><tspan x="-14.38" y="0">4</tspan></text>
                <text id="_5" data-name="5" transform="translate(537.332 56.73)" fill="#020202" font-size="50" font-family="NirmalaUI-Bold, Nirmala UI" font-weight="700"><tspan x="-14.38" y="0">5</tspan></text>
                <text id="_6" data-name="6" transform="translate(665.332 53.73)" fill="#020202" font-size="50" font-family="NirmalaUI-Bold, Nirmala UI" font-weight="700"><tspan x="-14.38" y="0">6</tspan></text>
                <text id="_10" data-name="10" transform="translate(1183.332 53.73)" fill="#020202" font-size="50" font-family="NirmalaUI-Bold, Nirmala UI" font-weight="700"><tspan x="-28.76" y="0">10</tspan></text>
                <text id="_7" data-name="7" transform="translate(793.332 53.73)" fill="#020202" font-size="50" font-family="NirmalaUI-Bold, Nirmala UI" font-weight="700"><tspan x="-14.38" y="0">7</tspan></text>
                <text id="_8" data-name="8" transform="translate(925.332 53.73)" fill="#020202" font-size="50" font-family="NirmalaUI-Bold, Nirmala UI" font-weight="700"><tspan x="-14.38" y="0">8</tspan></text>
                <text id="_9" data-name="9" transform="translate(1059.332 53.73)" fill="#020202" font-size="50" font-family="NirmalaUI-Bold, Nirmala UI" font-weight="700"><tspan x="-14.38" y="0">9</tspan></text>
              </g>
              <text id="_1-2" data-name="1" transform="translate(-1760.668 -2150.27)" font-size="50" font-family="NirmalaUI-Bold, Nirmala UI" font-weight="700"><tspan x="-14.38" y="0">1</tspan></text>
              <text id="_2-2" data-name="2" transform="translate(-1758.668 -2015.27)" fill="#020202" font-size="50" font-family="NirmalaUI-Bold, Nirmala UI" font-weight="700"><tspan x="-14.38" y="0">2</tspan></text>
              <text id="_3-2" data-name="3" transform="translate(-1758.668 -1890.27)" fill="#020202" font-size="50" font-family="NirmalaUI-Bold, Nirmala UI" font-weight="700"><tspan x="-14.38" y="0">3</tspan></text>
              <text id="_4-2" data-name="4" transform="translate(-1758.668 -1764.27)" fill="#020202" font-size="50" font-family="NirmalaUI-Bold, Nirmala UI" font-weight="700"><tspan x="-14.38" y="0">4</tspan></text>
              <text id="_5-2" data-name="5" transform="translate(-1758.668 -1639.27)" fill="#020202" font-size="50" font-family="NirmalaUI-Bold, Nirmala UI" font-weight="700"><tspan x="-14.38" y="0">5</tspan></text>
              <text id="_6-2" data-name="6" transform="translate(-1758.668 -1514.27)" fill="#020202" font-size="50" font-family="NirmalaUI-Bold, Nirmala UI" font-weight="700"><tspan x="-14.38" y="0">6</tspan></text>
              <text id="_10-2" data-name="10" transform="translate(-1761.668 -991.27)" fill="#020202" font-size="50" font-family="NirmalaUI-Bold, Nirmala UI" font-weight="700"><tspan x="-28.76" y="0">10</tspan></text>
              <text id="_7-2" data-name="7" transform="translate(-1758.668 -1377.27)" fill="#020202" font-size="50" font-family="NirmalaUI-Bold, Nirmala UI" font-weight="700"><tspan x="-14.38" y="0">7</tspan></text>
              <text id="_8-2" data-name="8" transform="translate(-1758.668 -1248.27)" fill="#020202" font-size="50" font-family="NirmalaUI-Bold, Nirmala UI" font-weight="700"><tspan x="-14.38" y="0">8</tspan></text>
              <text id="_9-2" data-name="9" transform="translate(-1758.668 -1122.27)" fill="#020202" font-size="50" font-family="NirmalaUI-Bold, Nirmala UI" font-weight="700"><tspan x="-14.38" y="0">9</tspan></text>
              <path id="Polygon_1" data-name="Polygon 1" d="M23.5,0,47,22.917H0Z" transform="matrix(0.682, -0.731, 0.731, 0.682, -1817.712, -2317.073)" fill="#fff"/>
              <g id="Group_10" data-name="Group 10" transform="translate(-1673 -2210)">
                <g id="Group_4" data-name="Group 4" transform="translate(90 0) rotate(90)">
                  <path id="Path_4" data-name="Path 4" d="M45,0A45,45,0,1,1,0,45,45,45,0,0,1,45,0Z" transform="translate(385.153)" fill="#dfe7f5"/>
                  <path id="Path_5" data-name="Path 5" d="M45,0A45,45,0,1,1,0,45,45,45,0,0,1,45,0Z" transform="translate(513.538)" fill="#dfe7f5"/>
                  <path id="Path_6" data-name="Path 6" d="M45,0A45,45,0,1,1,0,45,45,45,0,0,1,45,0Z" transform="translate(641.922)" fill="#dfe7f5"/>
                  <path id="Path_7" data-name="Path 7" d="M45,0A45,45,0,1,1,0,45,45,45,0,0,1,45,0Z" transform="translate(770.307)" fill="#dfe7f5"/>
                  <path id="Path_8" data-name="Path 8" d="M45,0A45,45,0,1,1,0,45,45,45,0,0,1,45,0Z" transform="translate(898.691)" fill="#dfe7f5"/>
                  <path id="Path_9" data-name="Path 9" d="M45,0A45,45,0,1,1,0,45,45,45,0,0,1,45,0Z" transform="translate(1024.234)" fill="#dfe7f5"/>
                  <path id="Path_10" data-name="Path 10" d="M45,0A45,45,0,1,1,0,45,45,45,0,0,1,45,0Z" transform="translate(1152.234)" fill="#dfe7f5"/>
                </g>
                <g id="Group_5" data-name="Group 5" transform="translate(90 0) rotate(90)">
                  <path id="Path_4-2" data-name="Path 4" d="M45,0A45,45,0,1,1,0,45,45,45,0,0,1,45,0Z" transform="translate(385.153)" fill="#dfe7f5"/>
                  <path id="Path_5-2" data-name="Path 5" d="M45,0A45,45,0,1,1,0,45,45,45,0,0,1,45,0Z" transform="translate(513.538)" fill="#dfe7f5"/>
                  <path id="Path_6-2" data-name="Path 6" d="M45,0A45,45,0,1,1,0,45,45,45,0,0,1,45,0Z" transform="translate(641.922)" fill="#dfe7f5"/>
                  <path id="Path_7-2" data-name="Path 7" d="M45,0A45,45,0,1,1,0,45,45,45,0,0,1,45,0Z" transform="translate(770.307)" fill="#dfe7f5"/>
                  <path id="Path_8-2" data-name="Path 8" d="M45,0A45,45,0,1,1,0,45,45,45,0,0,1,45,0Z" transform="translate(898.691)" fill="#dfe7f5"/>
                  <path id="Path_9-2" data-name="Path 9" d="M45,0A45,45,0,1,1,0,45,45,45,0,0,1,45,0Z" transform="translate(1024.234)" fill="#dfe7f5"/>
                  <path id="Path_10-2" data-name="Path 10" d="M45,0A45,45,0,1,1,0,45,45,45,0,0,1,45,0Z" transform="translate(1152.234)" fill="#dfe7f5"/>
                </g>
                <g id="Group_6" data-name="Group 6" transform="translate(218 0) rotate(90)">
                 <a href="https://www.google.com" target="_blank" title="apple"> <circle id="Ellipse_3-2" data-name="Ellipse 3" cx="45" cy="45" r="45" transform="translate(0.73 -0.332)" fill="#3e64ff"/></a>
                  <path id="Path_2" data-name="Path 2" d="M45,0A45,45,0,1,1,0,45,45,45,0,0,1,45,0Z" transform="translate(128.348)" fill="#dfe7f5"/>
                  <path id="Path_4-3" data-name="Path 4" d="M45,0A45,45,0,1,1,0,45,45,45,0,0,1,45,0Z" transform="translate(385.153)" fill="#dfe7f5"/>
                  <path id="Path_5-3" data-name="Path 5" d="M45,0A45,45,0,1,1,0,45,45,45,0,0,1,45,0Z" transform="translate(513.538)" fill="#dfe7f5"/>
                  <path id="Path_6-3" data-name="Path 6" d="M45,0A45,45,0,1,1,0,45,45,45,0,0,1,45,0Z" transform="translate(641.922)" fill="#dfe7f5"/>
                  <path id="Path_7-3" data-name="Path 7" d="M45,0A45,45,0,1,1,0,45,45,45,0,0,1,45,0Z" transform="translate(770.307)" fill="#dfe7f5"/>
                  <path id="Path_8-3" data-name="Path 8" d="M45,0A45,45,0,1,1,0,45,45,45,0,0,1,45,0Z" transform="translate(898.691)" fill="#dfe7f5"/>
                  <path id="Path_9-3" data-name="Path 9" d="M45,0A45,45,0,1,1,0,45,45,45,0,0,1,45,0Z" transform="translate(1024.619)" fill="#dfe7f5"/>
                  <path id="Path_10-3" data-name="Path 10" d="M45,0A45,45,0,1,1,0,45,45,45,0,0,1,45,0Z" transform="translate(1152.619)" fill="#dfe7f5"/>
                  <circle id="Ellipse_13" data-name="Ellipse 13" cx="45" cy="45" r="45" transform="translate(0.73 127.668)" fill="#3E64FF"/>
                  <path id="Path_11" data-name="Path 11" d="M45,0A45,45,0,1,1,0,45,45,45,0,0,1,45,0Z" transform="translate(128.348 128)" fill="#3E64FF"/>
                </g>
                <g id="Group_7" data-name="Group 7" transform="translate(346 0) rotate(90)">
                  <circle id="Ellipse_3-3" data-name="Ellipse 3" cx="45" cy="45" r="45" transform="translate(0.73 -0.332)" fill="#dfe7f5"/>
                  <path id="Path_2-2" data-name="Path 2" d="M45,0A45,45,0,1,1,0,45,45,45,0,0,1,45,0Z" transform="translate(128.733)" fill="#dfe7f5"/>
                  <path id="Path_4-4" data-name="Path 4" d="M45,0A45,45,0,1,1,0,45,45,45,0,0,1,45,0Z" transform="translate(385.153)" fill="#dfe7f5"/>
                  <path id="Path_5-4" data-name="Path 5" d="M45,0A45,45,0,1,1,0,45,45,45,0,0,1,45,0Z" transform="translate(513.538)" fill="#dfe7f5"/>
                  <path id="Path_6-4" data-name="Path 6" d="M45,0A45,45,0,1,1,0,45,45,45,0,0,1,45,0Z" transform="translate(641.922)" fill="#dfe7f5"/>
                  <path id="Path_7-4" data-name="Path 7" d="M45,0A45,45,0,1,1,0,45,45,45,0,0,1,45,0Z" transform="translate(770.307)" fill="#dfe7f5"/>
                  <path id="Path_8-4" data-name="Path 8" d="M45,0A45,45,0,1,1,0,45,45,45,0,0,1,45,0Z" transform="translate(898.691)" fill="#dfe7f5"/>
                  <path id="Path_9-4" data-name="Path 9" d="M45,0A45,45,0,1,1,0,45,45,45,0,0,1,45,0Z" transform="translate(1025.003)" fill="#dfe7f5"/>
                  <path id="Path_10-4" data-name="Path 10" d="M45,0A45,45,0,1,1,0,45,45,45,0,0,1,45,0Z" transform="translate(1153.003)" fill="#dfe7f5"/>
                </g>
                <g id="Group_8" data-name="Group 8" transform="translate(474 0) rotate(90)">
                  <circle id="Ellipse_3-4" data-name="Ellipse 3" cx="45" cy="45" r="45" transform="translate(0.73 -0.332)" fill="#dfe7f5"/>
                  <path id="Path_2-3" data-name="Path 2" d="M45,0A45,45,0,1,1,0,45,45,45,0,0,1,45,0Z" transform="translate(129.117)" fill="#dfe7f5"/>
                  <path id="Path_3" data-name="Path 3" d="M45,0A45,45,0,1,1,0,45,45,45,0,0,1,45,0Z" transform="translate(257.039)" fill="#dfe7f5"/>
                  <path id="Path_4-5" data-name="Path 4" d="M45,0A45,45,0,1,1,0,45,45,45,0,0,1,45,0Z" transform="translate(385.153)" fill="#dfe7f5"/>
                  <path id="Path_5-5" data-name="Path 5" d="M45,0A45,45,0,1,1,0,45,45,45,0,0,1,45,0Z" transform="translate(513.538)" fill="#dfe7f5"/>
                  <path id="Path_6-5" data-name="Path 6" d="M45,0A45,45,0,1,1,0,45,45,45,0,0,1,45,0Z" transform="translate(641.922)" fill="#dfe7f5"/>
                  <path id="Path_7-5" data-name="Path 7" d="M45,0A45,45,0,1,1,0,45,45,45,0,0,1,45,0Z" transform="translate(770.307)" fill="#dfe7f5"/>
                  <path id="Path_8-5" data-name="Path 8" d="M45,0A45,45,0,1,1,0,45,45,45,0,0,1,45,0Z" transform="translate(898.691)" fill="#dfe7f5"/>
                  <path id="Path_9-5" data-name="Path 9" d="M45,0A45,45,0,1,1,0,45,45,45,0,0,1,45,0Z" transform="translate(1025.388)" fill="#dfe7f5"/>
                  <path id="Path_10-5" data-name="Path 10" d="M45,0A45,45,0,1,1,0,45,45,45,0,0,1,45,0Z" transform="translate(1153.388)" fill="#dfe7f5"/>
                  <path id="Path_12" data-name="Path 12" d="M45,0A45,45,0,1,1,0,45,45,45,0,0,1,45,0Z" transform="translate(257.039 128)" fill="#dfe7f5"/>
                  <path id="Path_13" data-name="Path 13" d="M45,0A45,45,0,1,1,0,45,45,45,0,0,1,45,0Z" transform="translate(257.039 256)" fill="#dfe7f5"/>
                  <path id="Path_14" data-name="Path 14" d="M45,0A45,45,0,1,1,0,45,45,45,0,0,1,45,0Z" transform="translate(257.039 384)" fill="#dfe7f5"/>
                </g>
                <g id="Group_9" data-name="Group 9" transform="translate(602 0) rotate(90)">
                  <circle id="Ellipse_3-5" data-name="Ellipse 3" cx="45" cy="45" r="45" transform="translate(1.73 -0.332)" fill="#dfe7f5"/>
                  <path id="Path_2-4" data-name="Path 2" d="M45,0A45,45,0,1,1,0,45,45,45,0,0,1,45,0Z" transform="translate(129.502)" fill="#dfe7f5"/>
                  <path id="Path_3-2" data-name="Path 3" d="M45,0A45,45,0,1,1,0,45,45,45,0,0,1,45,0Z" transform="translate(257.039)" fill="#dfe7f5"/>
                  <path id="Path_4-6" data-name="Path 4" d="M45,0A45,45,0,1,1,0,45,45,45,0,0,1,45,0Z" transform="translate(385.424)" fill="#dfe7f5"/>
                  <path id="Path_6-6" data-name="Path 6" d="M45,0A45,45,0,1,1,0,45,45,45,0,0,1,45,0Z" transform="translate(641.922)" fill="#dfe7f5"/>
                  <path id="Path_7-6" data-name="Path 7" d="M45,0A45,45,0,1,1,0,45,45,45,0,0,1,45,0Z" transform="translate(770.307)" fill="#dfe7f5"/>
                  <path id="Path_8-6" data-name="Path 8" d="M45,0A45,45,0,1,1,0,45,45,45,0,0,1,45,0Z" transform="translate(898.691)" fill="#dfe7f5"/>
                  <path id="Path_9-6" data-name="Path 9" d="M45,0A45,45,0,1,1,0,45,45,45,0,0,1,45,0Z" transform="translate(1025.772)" fill="#dfe7f5"/>
                  <path id="Path_10-6" data-name="Path 10" d="M45,0A45,45,0,1,1,0,45,45,45,0,0,1,45,0Z" transform="translate(1153.772)" fill="#dfe7f5"/>
                </g>
              </g>
              <g id="Group_11" data-name="Group 11" transform="translate(-1015.668 -2210)">
                <g id="Group_4-2" data-name="Group 4" transform="translate(90 0) rotate(90)">
                  <circle id="Ellipse_3-6" data-name="Ellipse 3" cx="45" cy="45" r="45" transform="translate(-0.27)" fill="#dfe7f5"/>
                  <path id="Path_2-5" data-name="Path 2" d="M45,0A45,45,0,1,1,0,45,45,45,0,0,1,45,0Z" transform="translate(127.964)" fill="#dfe7f5"/>
                  <path id="Path_3-3" data-name="Path 3" d="M45,0A45,45,0,1,1,0,45,45,45,0,0,1,45,0Z" transform="translate(256.769)" fill="#dfe7f5"/>
                  <path id="Path_4-7" data-name="Path 4" d="M45,0A45,45,0,1,1,0,45,45,45,0,0,1,45,0Z" transform="translate(385.153)" fill="#dfe7f5"/>
                  <path id="Path_5-6" data-name="Path 5" d="M45,0A45,45,0,1,1,0,45,45,45,0,0,1,45,0Z" transform="translate(513.538)" fill="#dfe7f5"/>
                  <path id="Path_6-7" data-name="Path 6" d="M45,0A45,45,0,1,1,0,45,45,45,0,0,1,45,0Z" transform="translate(641.922)" fill="#dfe7f5"/>
                  <path id="Path_7-7" data-name="Path 7" d="M45,0A45,45,0,1,1,0,45,45,45,0,0,1,45,0Z" transform="translate(770.307)" fill="#dfe7f5"/>
                  <path id="Path_8-7" data-name="Path 8" d="M45,0A45,45,0,1,1,0,45,45,45,0,0,1,45,0Z" transform="translate(898.691)" fill="#dfe7f5"/>
                  <path id="Path_9-7" data-name="Path 9" d="M45,0A45,45,0,1,1,0,45,45,45,0,0,1,45,0Z" transform="translate(1024.234)" fill="#dfe7f5"/>
                  <path id="Path_10-7" data-name="Path 10" d="M45,0A45,45,0,1,1,0,45,45,45,0,0,1,45,0Z" transform="translate(1152.234)" fill="#dfe7f5"/>
                </g>
                <g id="Group_5-2" data-name="Group 5" transform="translate(90 0) rotate(90)">
                  <circle id="Ellipse_3-7" data-name="Ellipse 3" cx="45" cy="45" r="45" transform="translate(-0.27)" fill="#dfe7f5"/>
                  <path id="Path_2-6" data-name="Path 2" d="M45,0A45,45,0,1,1,0,45,45,45,0,0,1,45,0Z" transform="translate(127.964)" fill="#dfe7f5"/>
                  <path id="Path_3-4" data-name="Path 3" d="M45,0A45,45,0,1,1,0,45,45,45,0,0,1,45,0Z" transform="translate(256.769)" fill="#dfe7f5"/>
                  <path id="Path_4-8" data-name="Path 4" d="M45,0A45,45,0,1,1,0,45,45,45,0,0,1,45,0Z" transform="translate(385.153)" fill="#dfe7f5"/>
                  <path id="Path_5-7" data-name="Path 5" d="M45,0A45,45,0,1,1,0,45,45,45,0,0,1,45,0Z" transform="translate(513.538)" fill="#dfe7f5"/>
                  <path id="Path_6-8" data-name="Path 6" d="M45,0A45,45,0,1,1,0,45,45,45,0,0,1,45,0Z" transform="translate(641.922)" fill="#dfe7f5"/>
                  <path id="Path_7-8" data-name="Path 7" d="M45,0A45,45,0,1,1,0,45,45,45,0,0,1,45,0Z" transform="translate(770.307)" fill="#dfe7f5"/>
                  <path id="Path_8-8" data-name="Path 8" d="M45,0A45,45,0,1,1,0,45,45,45,0,0,1,45,0Z" transform="translate(898.691)" fill="#dfe7f5"/>
                  <path id="Path_9-8" data-name="Path 9" d="M45,0A45,45,0,1,1,0,45,45,45,0,0,1,45,0Z" transform="translate(1024.234)" fill="#dfe7f5"/>
                  <path id="Path_10-8" data-name="Path 10" d="M45,0A45,45,0,1,1,0,45,45,45,0,0,1,45,0Z" transform="translate(1152.234)" fill="#dfe7f5"/>
                </g>
                <g id="Group_6-2" data-name="Group 6" transform="translate(218 0) rotate(90)">
                  <circle id="Ellipse_3-8" data-name="Ellipse 3" cx="45" cy="45" r="45" transform="translate(0.73)" fill="#dfe7f5"/>
                  <path id="Path_2-7" data-name="Path 2" d="M45,0A45,45,0,1,1,0,45,45,45,0,0,1,45,0Z" transform="translate(128.348)" fill="#dfe7f5"/>
                  <path id="Path_3-5" data-name="Path 3" d="M45,0A45,45,0,1,1,0,45,45,45,0,0,1,45,0Z" transform="translate(256.769)" fill="#dfe7f5"/>
                  <path id="Path_4-9" data-name="Path 4" d="M45,0A45,45,0,1,1,0,45,45,45,0,0,1,45,0Z" transform="translate(385.153)" fill="#dfe7f5"/>
                  <path id="Path_5-8" data-name="Path 5" d="M45,0A45,45,0,1,1,0,45,45,45,0,0,1,45,0Z" transform="translate(513.538)" fill="#dfe7f5"/>
                  <path id="Path_6-9" data-name="Path 6" d="M45,0A45,45,0,1,1,0,45,45,45,0,0,1,45,0Z" transform="translate(641.922)" fill="#dfe7f5"/>
                  <path id="Path_7-9" data-name="Path 7" d="M45,0A45,45,0,1,1,0,45,45,45,0,0,1,45,0Z" transform="translate(770.307)" fill="#dfe7f5"/>
                  <path id="Path_8-9" data-name="Path 8" d="M45,0A45,45,0,1,1,0,45,45,45,0,0,1,45,0Z" transform="translate(898.691)" fill="#dfe7f5"/>
                  <path id="Path_9-9" data-name="Path 9" d="M45,0A45,45,0,1,1,0,45,45,45,0,0,1,45,0Z" transform="translate(1024.619)" fill="#dfe7f5"/>
                  <path id="Path_10-9" data-name="Path 10" d="M45,0A45,45,0,1,1,0,45,45,45,0,0,1,45,0Z" transform="translate(1152.619)" fill="#dfe7f5"/>
                </g>
                <g id="Group_7-2" data-name="Group 7" transform="translate(346 0) rotate(90)">
                  <circle id="Ellipse_3-9" data-name="Ellipse 3" cx="45" cy="45" r="45" transform="translate(0.73)" fill="#dfe7f5"/>
                  <path id="Path_2-8" data-name="Path 2" d="M45,0A45,45,0,1,1,0,45,45,45,0,0,1,45,0Z" transform="translate(128.733)" fill="#dfe7f5"/>
                  <path id="Path_3-6" data-name="Path 3" d="M45,0A45,45,0,1,1,0,45,45,45,0,0,1,45,0Z" transform="translate(256.769)" fill="#dfe7f5"/>
                  <path id="Path_4-10" data-name="Path 4" d="M45,0A45,45,0,1,1,0,45,45,45,0,0,1,45,0Z" transform="translate(385.153)" fill="#dfe7f5"/>
                  <path id="Path_5-9" data-name="Path 5" d="M45,0A45,45,0,1,1,0,45,45,45,0,0,1,45,0Z" transform="translate(513.538)" fill="#dfe7f5"/>
                  <path id="Path_6-10" data-name="Path 6" d="M45,0A45,45,0,1,1,0,45,45,45,0,0,1,45,0Z" transform="translate(641.922)" fill="#dfe7f5"/>
                  <path id="Path_7-10" data-name="Path 7" d="M45,0A45,45,0,1,1,0,45,45,45,0,0,1,45,0Z" transform="translate(770.307)" fill="#dfe7f5"/>
                  <path id="Path_8-10" data-name="Path 8" d="M45,0A45,45,0,1,1,0,45,45,45,0,0,1,45,0Z" transform="translate(898.691)" fill="#dfe7f5"/>
                  <path id="Path_9-10" data-name="Path 9" d="M45,0A45,45,0,1,1,0,45,45,45,0,0,1,45,0Z" transform="translate(1025.003)" fill="#dfe7f5"/>
                  <path id="Path_10-10" data-name="Path 10" d="M45,0A45,45,0,1,1,0,45,45,45,0,0,1,45,0Z" transform="translate(1153.003)" fill="#dfe7f5"/>
                </g>
                <g id="Group_8-2" data-name="Group 8" transform="translate(474 0) rotate(90)">
                  <circle id="Ellipse_3-10" data-name="Ellipse 3" cx="45" cy="45" r="45" transform="translate(0.73)" fill="#dfe7f5"/>
                  <path id="Path_2-9" data-name="Path 2" d="M45,0A45,45,0,1,1,0,45,45,45,0,0,1,45,0Z" transform="translate(129.117)" fill="#dfe7f5"/>
                  <path id="Path_3-7" data-name="Path 3" d="M45,0A45,45,0,1,1,0,45,45,45,0,0,1,45,0Z" transform="translate(257.039)" fill="#dfe7f5"/>
                  <path id="Path_4-11" data-name="Path 4" d="M45,0A45,45,0,1,1,0,45,45,45,0,0,1,45,0Z" transform="translate(385.153)" fill="#dfe7f5"/>
                  <path id="Path_5-10" data-name="Path 5" d="M45,0A45,45,0,1,1,0,45,45,45,0,0,1,45,0Z" transform="translate(513.538)" fill="#dfe7f5"/>
                  <path id="Path_6-11" data-name="Path 6" d="M45,0A45,45,0,1,1,0,45,45,45,0,0,1,45,0Z" transform="translate(641.922)" fill="#dfe7f5"/>
                  <path id="Path_7-11" data-name="Path 7" d="M45,0A45,45,0,1,1,0,45,45,45,0,0,1,45,0Z" transform="translate(770.307)" fill="#dfe7f5"/>
                  <path id="Path_8-11" data-name="Path 8" d="M45,0A45,45,0,1,1,0,45,45,45,0,0,1,45,0Z" transform="translate(898.691)" fill="#dfe7f5"/>
                  <path id="Path_9-11" data-name="Path 9" d="M45,0A45,45,0,1,1,0,45,45,45,0,0,1,45,0Z" transform="translate(1025.388)" fill="#dfe7f5"/>
                  <path id="Path_10-11" data-name="Path 10" d="M45,0A45,45,0,1,1,0,45,45,45,0,0,1,45,0Z" transform="translate(1153.388)" fill="#dfe7f5"/>
                </g>
                <g id="Group_9-2" data-name="Group 9" transform="translate(602 0) rotate(90)">
                  <circle id="Ellipse_3-11" data-name="Ellipse 3" cx="45" cy="45" r="45" transform="translate(1.73)" fill="#dfe7f5"/>
                  <path id="Path_2-10" data-name="Path 2" d="M45,0A45,45,0,1,1,0,45,45,45,0,0,1,45,0Z" transform="translate(129.502)" fill="#dfe7f5"/>
                  <path id="Path_3-8" data-name="Path 3" d="M45,0A45,45,0,1,1,0,45,45,45,0,0,1,45,0Z" transform="translate(257.039)" fill="#dfe7f5"/>
                  <path id="Path_4-12" data-name="Path 4" d="M45,0A45,45,0,1,1,0,45,45,45,0,0,1,45,0Z" transform="translate(385.424)" fill="#dfe7f5"/>
                  <path id="Path_5-11" data-name="Path 5" d="M45,0A45,45,0,1,1,0,45,45,45,0,0,1,45,0Z" transform="translate(513.538)" fill="#dfe7f5"/>
                  <path id="Path_6-12" data-name="Path 6" d="M45,0A45,45,0,1,1,0,45,45,45,0,0,1,45,0Z" transform="translate(641.922)" fill="#dfe7f5"/>
                  <path id="Path_7-12" data-name="Path 7" d="M45,0A45,45,0,1,1,0,45,45,45,0,0,1,45,0Z" transform="translate(770.307)" fill="#dfe7f5"/>
                  <path id="Path_8-12" data-name="Path 8" d="M45,0A45,45,0,1,1,0,45,45,45,0,0,1,45,0Z" transform="translate(898.691)" fill="#dfe7f5"/>
                  <path id="Path_9-12" data-name="Path 9" d="M45,0A45,45,0,1,1,0,45,45,45,0,0,1,45,0Z" transform="translate(1025.772)" fill="#dfe7f5"/>
                  <path id="Path_10-12" data-name="Path 10" d="M45,0A45,45,0,1,1,0,45,45,45,0,0,1,45,0Z" transform="translate(1153.772)" fill="#dfe7f5"/>
                </g>
              </g>
            </g>
            <g id="Group_13" data-name="Group 13" transform="translate(178 -833.13)">
              <path id="Path_12-2" data-name="Path 12" d="M45,0A45,45,0,1,1,0,45,45,45,0,0,1,45,0Z" transform="translate(801.67 1505) rotate(90)" fill="#dfe7f5"/>
            </g>
          </g>
        </g>
      </g>
    </g>
    <g id="Group_21" data-name="Group 21">
      <path id="Icon_awesome-check" data-name="Icon awesome-check" d="M16.982,44.064.732,26.51a2.856,2.856,0,0,1,0-3.819l3.535-3.819a2.371,2.371,0,0,1,3.536,0L18.75,30.7,42.2,5.368a2.371,2.371,0,0,1,3.536,0l3.535,3.819a2.856,2.856,0,0,1,0,3.819L20.518,44.064A2.371,2.371,0,0,1,16.982,44.064Z" transform="translate(398.824 1329.512)" fill="#dfe7f5"/>
      <path id="Icon_awesome-check-2" data-name="Icon awesome-check" d="M16.982,44.064.732,26.51a2.856,2.856,0,0,1,0-3.819l3.535-3.819a2.371,2.371,0,0,1,3.536,0L18.75,30.7,42.2,5.368a2.371,2.371,0,0,1,3.536,0l3.535,3.819a2.856,2.856,0,0,1,0,3.819L20.518,44.064A2.371,2.371,0,0,1,16.982,44.064Z" transform="translate(524.824 1329.512)" fill="#dfe7f5"/>
      <path id="Icon_awesome-check-3" data-name="Icon awesome-check" d="M16.982,44.064.732,26.51a2.856,2.856,0,0,1,0-3.819l3.535-3.819a2.371,2.371,0,0,1,3.536,0L18.75,30.7,42.2,5.368a2.371,2.371,0,0,1,3.536,0l3.535,3.819a2.856,2.856,0,0,1,0,3.819L20.518,44.064A2.371,2.371,0,0,1,16.982,44.064Z" transform="translate(653.824 1329.512)" fill="#dfe7f5"/>
      <path id="Icon_awesome-check-4" data-name="Icon awesome-check" d="M16.982,44.064.732,26.51a2.856,2.856,0,0,1,0-3.819l3.535-3.819a2.371,2.371,0,0,1,3.536,0L18.75,30.7,42.2,5.368a2.371,2.371,0,0,1,3.536,0l3.535,3.819a2.856,2.856,0,0,1,0,3.819L20.518,44.064A2.371,2.371,0,0,1,16.982,44.064Z" transform="translate(781.824 1329.512)" fill="#dfe7f5"/>
      <path id="Icon_awesome-check-5" data-name="Icon awesome-check" d="M16.982,44.064.732,26.51a2.856,2.856,0,0,1,0-3.819l3.535-3.819a2.371,2.371,0,0,1,3.536,0L18.75,30.7,42.2,5.368a2.371,2.371,0,0,1,3.536,0l3.535,3.819a2.856,2.856,0,0,1,0,3.819L20.518,44.064A2.371,2.371,0,0,1,16.982,44.064Z" transform="translate(910.824 1329.512)" fill="#dfe7f5"/>
      <path id="Icon_awesome-check-6" data-name="Icon awesome-check" d="M16.982,44.064.732,26.51a2.856,2.856,0,0,1,0-3.819l3.535-3.819a2.371,2.371,0,0,1,3.536,0L18.75,30.7,42.2,5.368a2.371,2.371,0,0,1,3.536,0l3.535,3.819a2.856,2.856,0,0,1,0,3.819L20.518,44.064A2.371,2.371,0,0,1,16.982,44.064Z" transform="translate(1053.824 1329.512)" fill="#dfe7f5"/>
      <path id="Icon_awesome-check-7" data-name="Icon awesome-check" d="M16.982,44.064.732,26.51a2.856,2.856,0,0,1,0-3.819l3.535-3.819a2.371,2.371,0,0,1,3.536,0L18.75,30.7,42.2,5.368a2.371,2.371,0,0,1,3.536,0l3.535,3.819a2.856,2.856,0,0,1,0,3.819L20.518,44.064A2.371,2.371,0,0,1,16.982,44.064Z" transform="translate(1181.824 1329.512)" fill="#dfe7f5"/>
      <path id="Icon_awesome-check-8" data-name="Icon awesome-check" d="M16.982,44.064.732,26.51a2.856,2.856,0,0,1,0-3.819l3.535-3.819a2.371,2.371,0,0,1,3.536,0L18.75,30.7,42.2,5.368a2.371,2.371,0,0,1,3.536,0l3.535,3.819a2.856,2.856,0,0,1,0,3.819L20.518,44.064A2.371,2.371,0,0,1,16.982,44.064Z" transform="translate(1310.824 1329.512)" fill="#dfe7f5"/>
      <path id="Icon_awesome-check-9" data-name="Icon awesome-check" d="M16.982,44.064.732,26.51a2.856,2.856,0,0,1,0-3.819l3.535-3.819a2.371,2.371,0,0,1,3.536,0L18.75,30.7,42.2,5.368a2.371,2.371,0,0,1,3.536,0l3.535,3.819a2.856,2.856,0,0,1,0,3.819L20.518,44.064A2.371,2.371,0,0,1,16.982,44.064Z" transform="translate(1438.824 1329.512)" fill="#dfe7f5"/>
      <path id="Icon_awesome-check-10" data-name="Icon awesome-check" d="M16.982,44.064.732,26.51a2.856,2.856,0,0,1,0-3.819l3.535-3.819a2.371,2.371,0,0,1,3.536,0L18.75,30.7,42.2,5.368a2.371,2.371,0,0,1,3.536,0l3.535,3.819a2.856,2.856,0,0,1,0,3.819L20.518,44.064A2.371,2.371,0,0,1,16.982,44.064Z" transform="translate(1567.824 1329.512)" fill="#dfe7f5"/>
    </g>
    <g id="Group_22" data-name="Group 22" transform="translate(-0.004 -123)">
      <path id="Icon_awesome-check-11" data-name="Icon awesome-check" d="M16.982,44.064.732,26.51a2.856,2.856,0,0,1,0-3.819l3.535-3.819a2.371,2.371,0,0,1,3.536,0L18.75,30.7,42.2,5.368a2.371,2.371,0,0,1,3.536,0l3.535,3.819a2.856,2.856,0,0,1,0,3.819L20.518,44.064A2.371,2.371,0,0,1,16.982,44.064Z" transform="translate(396.824 1329.512)" fill="#dfe7f5"/>
      <path id="Icon_awesome-check-12" data-name="Icon awesome-check" d="M16.982,44.064.732,26.51a2.856,2.856,0,0,1,0-3.819l3.535-3.819a2.371,2.371,0,0,1,3.536,0L18.75,30.7,42.2,5.368a2.371,2.371,0,0,1,3.536,0l3.535,3.819a2.856,2.856,0,0,1,0,3.819L20.518,44.064A2.371,2.371,0,0,1,16.982,44.064Z" transform="translate(524.824 1329.512)" fill="#dfe7f5"/>
      <path id="Icon_awesome-check-13" data-name="Icon awesome-check" d="M16.982,44.064.732,26.51a2.856,2.856,0,0,1,0-3.819l3.535-3.819a2.371,2.371,0,0,1,3.536,0L18.75,30.7,42.2,5.368a2.371,2.371,0,0,1,3.536,0l3.535,3.819a2.856,2.856,0,0,1,0,3.819L20.518,44.064A2.371,2.371,0,0,1,16.982,44.064Z" transform="translate(653.824 1329.512)" fill="#dfe7f5"/>
      <path id="Icon_awesome-check-14" data-name="Icon awesome-check" d="M16.982,44.064.732,26.51a2.856,2.856,0,0,1,0-3.819l3.535-3.819a2.371,2.371,0,0,1,3.536,0L18.75,30.7,42.2,5.368a2.371,2.371,0,0,1,3.536,0l3.535,3.819a2.856,2.856,0,0,1,0,3.819L20.518,44.064A2.371,2.371,0,0,1,16.982,44.064Z" transform="translate(781.824 1329.512)" fill="#dfe7f5"/>
      <path id="Icon_awesome-check-15" data-name="Icon awesome-check" d="M16.982,44.064.732,26.51a2.856,2.856,0,0,1,0-3.819l3.535-3.819a2.371,2.371,0,0,1,3.536,0L18.75,30.7,42.2,5.368a2.371,2.371,0,0,1,3.536,0l3.535,3.819a2.856,2.856,0,0,1,0,3.819L20.518,44.064A2.371,2.371,0,0,1,16.982,44.064Z" transform="translate(910.824 1329.512)" fill="#dfe7f5"/>
      <path id="Icon_awesome-check-16" data-name="Icon awesome-check" d="M16.982,44.064.732,26.51a2.856,2.856,0,0,1,0-3.819l3.535-3.819a2.371,2.371,0,0,1,3.536,0L18.75,30.7,42.2,5.368a2.371,2.371,0,0,1,3.536,0l3.535,3.819a2.856,2.856,0,0,1,0,3.819L20.518,44.064A2.371,2.371,0,0,1,16.982,44.064Z" transform="translate(1053.824 1329.512)" fill="#dfe7f5"/>
      <path id="Icon_awesome-check-17" data-name="Icon awesome-check" d="M16.982,44.064.732,26.51a2.856,2.856,0,0,1,0-3.819l3.535-3.819a2.371,2.371,0,0,1,3.536,0L18.75,30.7,42.2,5.368a2.371,2.371,0,0,1,3.536,0l3.535,3.819a2.856,2.856,0,0,1,0,3.819L20.518,44.064A2.371,2.371,0,0,1,16.982,44.064Z" transform="translate(1181.824 1329.512)" fill="#dfe7f5"/>
      <path id="Icon_awesome-check-18" data-name="Icon awesome-check" d="M16.982,44.064.732,26.51a2.856,2.856,0,0,1,0-3.819l3.535-3.819a2.371,2.371,0,0,1,3.536,0L18.75,30.7,42.2,5.368a2.371,2.371,0,0,1,3.536,0l3.535,3.819a2.856,2.856,0,0,1,0,3.819L20.518,44.064A2.371,2.371,0,0,1,16.982,44.064Z" transform="translate(1310.824 1329.512)" fill="#dfe7f5"/>
      <path id="Icon_awesome-check-19" data-name="Icon awesome-check" d="M16.982,44.064.732,26.51a2.856,2.856,0,0,1,0-3.819l3.535-3.819a2.371,2.371,0,0,1,3.536,0L18.75,30.7,42.2,5.368a2.371,2.371,0,0,1,3.536,0l3.535,3.819a2.856,2.856,0,0,1,0,3.819L20.518,44.064A2.371,2.371,0,0,1,16.982,44.064Z" transform="translate(1438.824 1329.512)" fill="#dfe7f5"/>
      <path id="Icon_awesome-check-20" data-name="Icon awesome-check" d="M16.982,44.064.732,26.51a2.856,2.856,0,0,1,0-3.819l3.535-3.819a2.371,2.371,0,0,1,3.536,0L18.75,30.7,42.2,5.368a2.371,2.371,0,0,1,3.536,0l3.535,3.819a2.856,2.856,0,0,1,0,3.819L20.518,44.064A2.371,2.371,0,0,1,16.982,44.064Z" transform="translate(1567.824 1329.512)" fill="#dfe7f5"/>
    </g>
    <g id="Group_23" data-name="Group 23" transform="translate(1.996 -242)">
      <path id="Icon_awesome-check-21" data-name="Icon awesome-check" d="M16.982,44.064.732,26.51a2.856,2.856,0,0,1,0-3.819l3.535-3.819a2.371,2.371,0,0,1,3.536,0L18.75,30.7,42.2,5.368a2.371,2.371,0,0,1,3.536,0l3.535,3.819a2.856,2.856,0,0,1,0,3.819L20.518,44.064A2.371,2.371,0,0,1,16.982,44.064Z" transform="translate(396.824 1329.512)" fill="#dfe7f5"/>
      <path id="Icon_awesome-check-22" data-name="Icon awesome-check" d="M16.982,44.064.732,26.51a2.856,2.856,0,0,1,0-3.819l3.535-3.819a2.371,2.371,0,0,1,3.536,0L18.75,30.7,42.2,5.368a2.371,2.371,0,0,1,3.536,0l3.535,3.819a2.856,2.856,0,0,1,0,3.819L20.518,44.064A2.371,2.371,0,0,1,16.982,44.064Z" transform="translate(524.824 1329.512)" fill="#dfe7f5"/>
      <path id="Icon_awesome-check-23" data-name="Icon awesome-check" d="M16.982,44.064.732,26.51a2.856,2.856,0,0,1,0-3.819l3.535-3.819a2.371,2.371,0,0,1,3.536,0L18.75,30.7,42.2,5.368a2.371,2.371,0,0,1,3.536,0l3.535,3.819a2.856,2.856,0,0,1,0,3.819L20.518,44.064A2.371,2.371,0,0,1,16.982,44.064Z" transform="translate(653.824 1329.512)" fill="#dfe7f5"/>
      <path id="Icon_awesome-check-24" data-name="Icon awesome-check" d="M16.982,44.064.732,26.51a2.856,2.856,0,0,1,0-3.819l3.535-3.819a2.371,2.371,0,0,1,3.536,0L18.75,30.7,42.2,5.368a2.371,2.371,0,0,1,3.536,0l3.535,3.819a2.856,2.856,0,0,1,0,3.819L20.518,44.064A2.371,2.371,0,0,1,16.982,44.064Z" transform="translate(781.824 1329.512)" fill="#dfe7f5"/>
      <path id="Icon_awesome-check-25" data-name="Icon awesome-check" d="M16.982,44.064.732,26.51a2.856,2.856,0,0,1,0-3.819l3.535-3.819a2.371,2.371,0,0,1,3.536,0L18.75,30.7,42.2,5.368a2.371,2.371,0,0,1,3.536,0l3.535,3.819a2.856,2.856,0,0,1,0,3.819L20.518,44.064A2.371,2.371,0,0,1,16.982,44.064Z" transform="translate(910.824 1329.512)" fill="#dfe7f5"/>
      <path id="Icon_awesome-check-26" data-name="Icon awesome-check" d="M16.982,44.064.732,26.51a2.856,2.856,0,0,1,0-3.819l3.535-3.819a2.371,2.371,0,0,1,3.536,0L18.75,30.7,42.2,5.368a2.371,2.371,0,0,1,3.536,0l3.535,3.819a2.856,2.856,0,0,1,0,3.819L20.518,44.064A2.371,2.371,0,0,1,16.982,44.064Z" transform="translate(1053.824 1329.512)" fill="#dfe7f5"/>
      <path id="Icon_awesome-check-27" data-name="Icon awesome-check" d="M16.982,44.064.732,26.51a2.856,2.856,0,0,1,0-3.819l3.535-3.819a2.371,2.371,0,0,1,3.536,0L18.75,30.7,42.2,5.368a2.371,2.371,0,0,1,3.536,0l3.535,3.819a2.856,2.856,0,0,1,0,3.819L20.518,44.064A2.371,2.371,0,0,1,16.982,44.064Z" transform="translate(1181.824 1329.512)" fill="#dfe7f5"/>
      <path id="Icon_awesome-check-28" data-name="Icon awesome-check" d="M16.982,44.064.732,26.51a2.856,2.856,0,0,1,0-3.819l3.535-3.819a2.371,2.371,0,0,1,3.536,0L18.75,30.7,42.2,5.368a2.371,2.371,0,0,1,3.536,0l3.535,3.819a2.856,2.856,0,0,1,0,3.819L20.518,44.064A2.371,2.371,0,0,1,16.982,44.064Z" transform="translate(1310.824 1329.512)" fill="#dfe7f5"/>
      <path id="Icon_awesome-check-29" data-name="Icon awesome-check" d="M16.982,44.064.732,26.51a2.856,2.856,0,0,1,0-3.819l3.535-3.819a2.371,2.371,0,0,1,3.536,0L18.75,30.7,42.2,5.368a2.371,2.371,0,0,1,3.536,0l3.535,3.819a2.856,2.856,0,0,1,0,3.819L20.518,44.064A2.371,2.371,0,0,1,16.982,44.064Z" transform="translate(1438.824 1329.512)" fill="#dfe7f5"/>
      <path id="Icon_awesome-check-30" data-name="Icon awesome-check" d="M16.982,44.064.732,26.51a2.856,2.856,0,0,1,0-3.819l3.535-3.819a2.371,2.371,0,0,1,3.536,0L18.75,30.7,42.2,5.368a2.371,2.371,0,0,1,3.536,0l3.535,3.819a2.856,2.856,0,0,1,0,3.819L20.518,44.064A2.371,2.371,0,0,1,16.982,44.064Z" transform="translate(1567.824 1329.512)" fill="#dfe7f5"/>
    </g>
    <g id="Group_24" data-name="Group 24" transform="translate(1.996 -374)">
      <path id="Icon_awesome-check-31" data-name="Icon awesome-check" d="M16.982,44.064.732,26.51a2.856,2.856,0,0,1,0-3.819l3.535-3.819a2.371,2.371,0,0,1,3.536,0L18.75,30.7,42.2,5.368a2.371,2.371,0,0,1,3.536,0l3.535,3.819a2.856,2.856,0,0,1,0,3.819L20.518,44.064A2.371,2.371,0,0,1,16.982,44.064Z" transform="translate(396.824 1329.512)" fill="#dfe7f5"/>
      <path id="Icon_awesome-check-32" data-name="Icon awesome-check" d="M16.982,44.064.732,26.51a2.856,2.856,0,0,1,0-3.819l3.535-3.819a2.371,2.371,0,0,1,3.536,0L18.75,30.7,42.2,5.368a2.371,2.371,0,0,1,3.536,0l3.535,3.819a2.856,2.856,0,0,1,0,3.819L20.518,44.064A2.371,2.371,0,0,1,16.982,44.064Z" transform="translate(524.824 1329.512)" fill="#dfe7f5"/>
      <path id="Icon_awesome-check-33" data-name="Icon awesome-check" d="M16.982,44.064.732,26.51a2.856,2.856,0,0,1,0-3.819l3.535-3.819a2.371,2.371,0,0,1,3.536,0L18.75,30.7,42.2,5.368a2.371,2.371,0,0,1,3.536,0l3.535,3.819a2.856,2.856,0,0,1,0,3.819L20.518,44.064A2.371,2.371,0,0,1,16.982,44.064Z" transform="translate(653.824 1329.512)" fill="#dfe7f5"/>
      <path id="Icon_awesome-check-34" data-name="Icon awesome-check" d="M16.982,44.064.732,26.51a2.856,2.856,0,0,1,0-3.819l3.535-3.819a2.371,2.371,0,0,1,3.536,0L18.75,30.7,42.2,5.368a2.371,2.371,0,0,1,3.536,0l3.535,3.819a2.856,2.856,0,0,1,0,3.819L20.518,44.064A2.371,2.371,0,0,1,16.982,44.064Z" transform="translate(781.824 1329.512)" fill="#dfe7f5"/>
      <path id="Icon_awesome-check-35" data-name="Icon awesome-check" d="M16.982,44.064.732,26.51a2.856,2.856,0,0,1,0-3.819l3.535-3.819a2.371,2.371,0,0,1,3.536,0L18.75,30.7,42.2,5.368a2.371,2.371,0,0,1,3.536,0l3.535,3.819a2.856,2.856,0,0,1,0,3.819L20.518,44.064A2.371,2.371,0,0,1,16.982,44.064Z" transform="translate(910.824 1329.512)" fill="#dfe7f5"/>
      <path id="Icon_awesome-check-36" data-name="Icon awesome-check" d="M16.982,44.064.732,26.51a2.856,2.856,0,0,1,0-3.819l3.535-3.819a2.371,2.371,0,0,1,3.536,0L18.75,30.7,42.2,5.368a2.371,2.371,0,0,1,3.536,0l3.535,3.819a2.856,2.856,0,0,1,0,3.819L20.518,44.064A2.371,2.371,0,0,1,16.982,44.064Z" transform="translate(1053.824 1329.512)" fill="#dfe7f5"/>
      <path id="Icon_awesome-check-37" data-name="Icon awesome-check" d="M16.982,44.064.732,26.51a2.856,2.856,0,0,1,0-3.819l3.535-3.819a2.371,2.371,0,0,1,3.536,0L18.75,30.7,42.2,5.368a2.371,2.371,0,0,1,3.536,0l3.535,3.819a2.856,2.856,0,0,1,0,3.819L20.518,44.064A2.371,2.371,0,0,1,16.982,44.064Z" transform="translate(1181.824 1329.512)" fill="#dfe7f5"/>
      <path id="Icon_awesome-check-38" data-name="Icon awesome-check" d="M16.982,44.064.732,26.51a2.856,2.856,0,0,1,0-3.819l3.535-3.819a2.371,2.371,0,0,1,3.536,0L18.75,30.7,42.2,5.368a2.371,2.371,0,0,1,3.536,0l3.535,3.819a2.856,2.856,0,0,1,0,3.819L20.518,44.064A2.371,2.371,0,0,1,16.982,44.064Z" transform="translate(1310.824 1329.512)" fill="#dfe7f5"/>
      <path id="Icon_awesome-check-39" data-name="Icon awesome-check" d="M16.982,44.064.732,26.51a2.856,2.856,0,0,1,0-3.819l3.535-3.819a2.371,2.371,0,0,1,3.536,0L18.75,30.7,42.2,5.368a2.371,2.371,0,0,1,3.536,0l3.535,3.819a2.856,2.856,0,0,1,0,3.819L20.518,44.064A2.371,2.371,0,0,1,16.982,44.064Z" transform="translate(1438.824 1329.512)" fill="#dfe7f5"/>
      <path id="Icon_awesome-check-40" data-name="Icon awesome-check" d="M16.982,44.064.732,26.51a2.856,2.856,0,0,1,0-3.819l3.535-3.819a2.371,2.371,0,0,1,3.536,0L18.75,30.7,42.2,5.368a2.371,2.371,0,0,1,3.536,0l3.535,3.819a2.856,2.856,0,0,1,0,3.819L20.518,44.064A2.371,2.371,0,0,1,16.982,44.064Z" transform="translate(1567.824 1329.512)" fill="#dfe7f5"/>
    </g>
    <g id="Group_25" data-name="Group 25" transform="translate(1.996 -502)">
      <path id="Icon_awesome-check-41" data-name="Icon awesome-check" d="M16.982,44.064.732,26.51a2.856,2.856,0,0,1,0-3.819l3.535-3.819a2.371,2.371,0,0,1,3.536,0L18.75,30.7,42.2,5.368a2.371,2.371,0,0,1,3.536,0l3.535,3.819a2.856,2.856,0,0,1,0,3.819L20.518,44.064A2.371,2.371,0,0,1,16.982,44.064Z" transform="translate(396.824 1329.512)" fill="#dfe7f5"/>
      <path id="Icon_awesome-check-42" data-name="Icon awesome-check" d="M16.982,44.064.732,26.51a2.856,2.856,0,0,1,0-3.819l3.535-3.819a2.371,2.371,0,0,1,3.536,0L18.75,30.7,42.2,5.368a2.371,2.371,0,0,1,3.536,0l3.535,3.819a2.856,2.856,0,0,1,0,3.819L20.518,44.064A2.371,2.371,0,0,1,16.982,44.064Z" transform="translate(524.824 1329.512)" fill="#dfe7f5"/>
      <path id="Icon_awesome-check-43" data-name="Icon awesome-check" d="M16.982,44.064.732,26.51a2.856,2.856,0,0,1,0-3.819l3.535-3.819a2.371,2.371,0,0,1,3.536,0L18.75,30.7,42.2,5.368a2.371,2.371,0,0,1,3.536,0l3.535,3.819a2.856,2.856,0,0,1,0,3.819L20.518,44.064A2.371,2.371,0,0,1,16.982,44.064Z" transform="translate(653.824 1329.512)" fill="#dfe7f5"/>
      <path id="Icon_awesome-check-44" data-name="Icon awesome-check" d="M16.982,44.064.732,26.51a2.856,2.856,0,0,1,0-3.819l3.535-3.819a2.371,2.371,0,0,1,3.536,0L18.75,30.7,42.2,5.368a2.371,2.371,0,0,1,3.536,0l3.535,3.819a2.856,2.856,0,0,1,0,3.819L20.518,44.064A2.371,2.371,0,0,1,16.982,44.064Z" transform="translate(781.824 1329.512)" fill="#dfe7f5"/>
      <path id="Icon_awesome-check-45" data-name="Icon awesome-check" d="M16.982,44.064.732,26.51a2.856,2.856,0,0,1,0-3.819l3.535-3.819a2.371,2.371,0,0,1,3.536,0L18.75,30.7,42.2,5.368a2.371,2.371,0,0,1,3.536,0l3.535,3.819a2.856,2.856,0,0,1,0,3.819L20.518,44.064A2.371,2.371,0,0,1,16.982,44.064Z" transform="translate(910.824 1329.512)" fill="#dfe7f5"/>
      <path id="Icon_awesome-check-46" data-name="Icon awesome-check" d="M16.982,44.064.732,26.51a2.856,2.856,0,0,1,0-3.819l3.535-3.819a2.371,2.371,0,0,1,3.536,0L18.75,30.7,42.2,5.368a2.371,2.371,0,0,1,3.536,0l3.535,3.819a2.856,2.856,0,0,1,0,3.819L20.518,44.064A2.371,2.371,0,0,1,16.982,44.064Z" transform="translate(1053.824 1329.512)" fill="#dfe7f5"/>
      <path id="Icon_awesome-check-47" data-name="Icon awesome-check" d="M16.982,44.064.732,26.51a2.856,2.856,0,0,1,0-3.819l3.535-3.819a2.371,2.371,0,0,1,3.536,0L18.75,30.7,42.2,5.368a2.371,2.371,0,0,1,3.536,0l3.535,3.819a2.856,2.856,0,0,1,0,3.819L20.518,44.064A2.371,2.371,0,0,1,16.982,44.064Z" transform="translate(1181.824 1329.512)" fill="#dfe7f5"/>
      <path id="Icon_awesome-check-48" data-name="Icon awesome-check" d="M16.982,44.064.732,26.51a2.856,2.856,0,0,1,0-3.819l3.535-3.819a2.371,2.371,0,0,1,3.536,0L18.75,30.7,42.2,5.368a2.371,2.371,0,0,1,3.536,0l3.535,3.819a2.856,2.856,0,0,1,0,3.819L20.518,44.064A2.371,2.371,0,0,1,16.982,44.064Z" transform="translate(1310.824 1329.512)" fill="#dfe7f5"/>
      <path id="Icon_awesome-check-49" data-name="Icon awesome-check" d="M16.982,44.064.732,26.51a2.856,2.856,0,0,1,0-3.819l3.535-3.819a2.371,2.371,0,0,1,3.536,0L18.75,30.7,42.2,5.368a2.371,2.371,0,0,1,3.536,0l3.535,3.819a2.856,2.856,0,0,1,0,3.819L20.518,44.064A2.371,2.371,0,0,1,16.982,44.064Z" transform="translate(1438.824 1329.512)" fill="#dfe7f5"/>
      <path id="Icon_awesome-check-50" data-name="Icon awesome-check" d="M16.982,44.064.732,26.51a2.856,2.856,0,0,1,0-3.819l3.535-3.819a2.371,2.371,0,0,1,3.536,0L18.75,30.7,42.2,5.368a2.371,2.371,0,0,1,3.536,0l3.535,3.819a2.856,2.856,0,0,1,0,3.819L20.518,44.064A2.371,2.371,0,0,1,16.982,44.064Z" transform="translate(1567.824 1329.512)" fill="#dfe7f5"/>
    </g>
    <g id="Group_26" data-name="Group 26" transform="translate(1.996 -630)">
      <path id="Icon_awesome-check-51" data-name="Icon awesome-check" d="M16.982,44.064.732,26.51a2.856,2.856,0,0,1,0-3.819l3.535-3.819a2.371,2.371,0,0,1,3.536,0L18.75,30.7,42.2,5.368a2.371,2.371,0,0,1,3.536,0l3.535,3.819a2.856,2.856,0,0,1,0,3.819L20.518,44.064A2.371,2.371,0,0,1,16.982,44.064Z" transform="translate(396.824 1329.512)" fill="#dfe7f5"/>
      <path id="Icon_awesome-check-52" data-name="Icon awesome-check" d="M16.982,44.064.732,26.51a2.856,2.856,0,0,1,0-3.819l3.535-3.819a2.371,2.371,0,0,1,3.536,0L18.75,30.7,42.2,5.368a2.371,2.371,0,0,1,3.536,0l3.535,3.819a2.856,2.856,0,0,1,0,3.819L20.518,44.064A2.371,2.371,0,0,1,16.982,44.064Z" transform="translate(524.824 1329.512)" fill="#dfe7f5"/>
      <path id="Icon_awesome-check-53" data-name="Icon awesome-check" d="M16.982,44.064.732,26.51a2.856,2.856,0,0,1,0-3.819l3.535-3.819a2.371,2.371,0,0,1,3.536,0L18.75,30.7,42.2,5.368a2.371,2.371,0,0,1,3.536,0l3.535,3.819a2.856,2.856,0,0,1,0,3.819L20.518,44.064A2.371,2.371,0,0,1,16.982,44.064Z" transform="translate(653.824 1329.512)" fill="#dfe7f5"/>
      <path id="Icon_awesome-check-54" data-name="Icon awesome-check" d="M16.982,44.064.732,26.51a2.856,2.856,0,0,1,0-3.819l3.535-3.819a2.371,2.371,0,0,1,3.536,0L18.75,30.7,42.2,5.368a2.371,2.371,0,0,1,3.536,0l3.535,3.819a2.856,2.856,0,0,1,0,3.819L20.518,44.064A2.371,2.371,0,0,1,16.982,44.064Z" transform="translate(781.824 1329.512)" fill="#dfe7f5"/>
      <path id="Icon_awesome-check-55" data-name="Icon awesome-check" d="M16.982,44.064.732,26.51a2.856,2.856,0,0,1,0-3.819l3.535-3.819a2.371,2.371,0,0,1,3.536,0L18.75,30.7,42.2,5.368a2.371,2.371,0,0,1,3.536,0l3.535,3.819a2.856,2.856,0,0,1,0,3.819L20.518,44.064A2.371,2.371,0,0,1,16.982,44.064Z" transform="translate(910.824 1329.512)" fill="#dfe7f5"/>
      <path id="Icon_awesome-check-56" data-name="Icon awesome-check" d="M16.982,44.064.732,26.51a2.856,2.856,0,0,1,0-3.819l3.535-3.819a2.371,2.371,0,0,1,3.536,0L18.75,30.7,42.2,5.368a2.371,2.371,0,0,1,3.536,0l3.535,3.819a2.856,2.856,0,0,1,0,3.819L20.518,44.064A2.371,2.371,0,0,1,16.982,44.064Z" transform="translate(1053.824 1329.512)" fill="#dfe7f5"/>
      <path id="Icon_awesome-check-57" data-name="Icon awesome-check" d="M16.982,44.064.732,26.51a2.856,2.856,0,0,1,0-3.819l3.535-3.819a2.371,2.371,0,0,1,3.536,0L18.75,30.7,42.2,5.368a2.371,2.371,0,0,1,3.536,0l3.535,3.819a2.856,2.856,0,0,1,0,3.819L20.518,44.064A2.371,2.371,0,0,1,16.982,44.064Z" transform="translate(1181.824 1329.512)" fill="#dfe7f5"/>
      <path id="Icon_awesome-check-58" data-name="Icon awesome-check" d="M16.982,44.064.732,26.51a2.856,2.856,0,0,1,0-3.819l3.535-3.819a2.371,2.371,0,0,1,3.536,0L18.75,30.7,42.2,5.368a2.371,2.371,0,0,1,3.536,0l3.535,3.819a2.856,2.856,0,0,1,0,3.819L20.518,44.064A2.371,2.371,0,0,1,16.982,44.064Z" transform="translate(1310.824 1329.512)" fill="#dfe7f5"/>
      <path id="Icon_awesome-check-59" data-name="Icon awesome-check" d="M16.982,44.064.732,26.51a2.856,2.856,0,0,1,0-3.819l3.535-3.819a2.371,2.371,0,0,1,3.536,0L18.75,30.7,42.2,5.368a2.371,2.371,0,0,1,3.536,0l3.535,3.819a2.856,2.856,0,0,1,0,3.819L20.518,44.064A2.371,2.371,0,0,1,16.982,44.064Z" transform="translate(1438.824 1329.512)" fill="#dfe7f5"/>
      <path id="Icon_awesome-check-60" data-name="Icon awesome-check" d="M16.982,44.064.732,26.51a2.856,2.856,0,0,1,0-3.819l3.535-3.819a2.371,2.371,0,0,1,3.536,0L18.75,30.7,42.2,5.368a2.371,2.371,0,0,1,3.536,0l3.535,3.819a2.856,2.856,0,0,1,0,3.819L20.518,44.064A2.371,2.371,0,0,1,16.982,44.064Z" transform="translate(1567.824 1329.512)" fill="#dfe7f5"/>
    </g>
    <g id="Group_27" data-name="Group 27" transform="translate(-0.004 -758)">
      <path id="Icon_awesome-check-61" data-name="Icon awesome-check" d="M16.982,44.064.732,26.51a2.856,2.856,0,0,1,0-3.819l3.535-3.819a2.371,2.371,0,0,1,3.536,0L18.75,30.7,42.2,5.368a2.371,2.371,0,0,1,3.536,0l3.535,3.819a2.856,2.856,0,0,1,0,3.819L20.518,44.064A2.371,2.371,0,0,1,16.982,44.064Z" transform="translate(396.824 1329.512)" fill="#dfe7f5"/>
      <path id="Icon_awesome-check-62" data-name="Icon awesome-check" d="M16.982,44.064.732,26.51a2.856,2.856,0,0,1,0-3.819l3.535-3.819a2.371,2.371,0,0,1,3.536,0L18.75,30.7,42.2,5.368a2.371,2.371,0,0,1,3.536,0l3.535,3.819a2.856,2.856,0,0,1,0,3.819L20.518,44.064A2.371,2.371,0,0,1,16.982,44.064Z" transform="translate(524.824 1329.512)" fill="#dfe7f5"/>
      <path id="Icon_awesome-check-63" data-name="Icon awesome-check" d="M16.982,44.064.732,26.51a2.856,2.856,0,0,1,0-3.819l3.535-3.819a2.371,2.371,0,0,1,3.536,0L18.75,30.7,42.2,5.368a2.371,2.371,0,0,1,3.536,0l3.535,3.819a2.856,2.856,0,0,1,0,3.819L20.518,44.064A2.371,2.371,0,0,1,16.982,44.064Z" transform="translate(653.824 1329.512)" fill="#dfe7f5"/>
      <path id="Icon_awesome-check-64" data-name="Icon awesome-check" d="M16.982,44.064.732,26.51a2.856,2.856,0,0,1,0-3.819l3.535-3.819a2.371,2.371,0,0,1,3.536,0L18.75,30.7,42.2,5.368a2.371,2.371,0,0,1,3.536,0l3.535,3.819a2.856,2.856,0,0,1,0,3.819L20.518,44.064A2.371,2.371,0,0,1,16.982,44.064Z" transform="translate(781.824 1329.512)" fill="#dfe7f5"/>
      <path id="Icon_awesome-check-65" data-name="Icon awesome-check" d="M16.982,44.064.732,26.51a2.856,2.856,0,0,1,0-3.819l3.535-3.819a2.371,2.371,0,0,1,3.536,0L18.75,30.7,42.2,5.368a2.371,2.371,0,0,1,3.536,0l3.535,3.819a2.856,2.856,0,0,1,0,3.819L20.518,44.064A2.371,2.371,0,0,1,16.982,44.064Z" transform="translate(910.824 1329.512)" fill="#dfe7f5"/>
      <path id="Icon_awesome-check-66" data-name="Icon awesome-check" d="M16.982,44.064.732,26.51a2.856,2.856,0,0,1,0-3.819l3.535-3.819a2.371,2.371,0,0,1,3.536,0L18.75,30.7,42.2,5.368a2.371,2.371,0,0,1,3.536,0l3.535,3.819a2.856,2.856,0,0,1,0,3.819L20.518,44.064A2.371,2.371,0,0,1,16.982,44.064Z" transform="translate(1053.824 1329.512)" fill="#dfe7f5"/>
      <path id="Icon_awesome-check-67" data-name="Icon awesome-check" d="M16.982,44.064.732,26.51a2.856,2.856,0,0,1,0-3.819l3.535-3.819a2.371,2.371,0,0,1,3.536,0L18.75,30.7,42.2,5.368a2.371,2.371,0,0,1,3.536,0l3.535,3.819a2.856,2.856,0,0,1,0,3.819L20.518,44.064A2.371,2.371,0,0,1,16.982,44.064Z" transform="translate(1181.824 1329.512)" fill="#dfe7f5"/>
      <path id="Icon_awesome-check-68" data-name="Icon awesome-check" d="M16.982,44.064.732,26.51a2.856,2.856,0,0,1,0-3.819l3.535-3.819a2.371,2.371,0,0,1,3.536,0L18.75,30.7,42.2,5.368a2.371,2.371,0,0,1,3.536,0l3.535,3.819a2.856,2.856,0,0,1,0,3.819L20.518,44.064A2.371,2.371,0,0,1,16.982,44.064Z" transform="translate(1310.824 1329.512)" fill="#dfe7f5"/>
      <path id="Icon_awesome-check-69" data-name="Icon awesome-check" d="M16.982,44.064.732,26.51a2.856,2.856,0,0,1,0-3.819l3.535-3.819a2.371,2.371,0,0,1,3.536,0L18.75,30.7,42.2,5.368a2.371,2.371,0,0,1,3.536,0l3.535,3.819a2.856,2.856,0,0,1,0,3.819L20.518,44.064A2.371,2.371,0,0,1,16.982,44.064Z" transform="translate(1438.824 1329.512)" fill="#dfe7f5"/>
      <path id="Icon_awesome-check-70" data-name="Icon awesome-check" d="M16.982,44.064.732,26.51a2.856,2.856,0,0,1,0-3.819l3.535-3.819a2.371,2.371,0,0,1,3.536,0L18.75,30.7,42.2,5.368a2.371,2.371,0,0,1,3.536,0l3.535,3.819a2.856,2.856,0,0,1,0,3.819L20.518,44.064A2.371,2.371,0,0,1,16.982,44.064Z" transform="translate(1567.824 1329.512)" fill="#dfe7f5"/>
    </g>
    <g id="Group_28" data-name="Group 28" transform="translate(-0.004 -886)">
      <path id="Icon_awesome-check-71" data-name="Icon awesome-check" d="M16.982,44.064.732,26.51a2.856,2.856,0,0,1,0-3.819l3.535-3.819a2.371,2.371,0,0,1,3.536,0L18.75,30.7,42.2,5.368a2.371,2.371,0,0,1,3.536,0l3.535,3.819a2.856,2.856,0,0,1,0,3.819L20.518,44.064A2.371,2.371,0,0,1,16.982,44.064Z" transform="translate(396.824 1329.512)" fill="#dfe7f5"/>
      <path id="Icon_awesome-check-72" data-name="Icon awesome-check" d="M16.982,44.064.732,26.51a2.856,2.856,0,0,1,0-3.819l3.535-3.819a2.371,2.371,0,0,1,3.536,0L18.75,30.7,42.2,5.368a2.371,2.371,0,0,1,3.536,0l3.535,3.819a2.856,2.856,0,0,1,0,3.819L20.518,44.064A2.371,2.371,0,0,1,16.982,44.064Z" transform="translate(524.824 1329.512)" fill="#dfe7f5"/>
      <path id="Icon_awesome-check-73" data-name="Icon awesome-check" d="M16.982,44.064.732,26.51a2.856,2.856,0,0,1,0-3.819l3.535-3.819a2.371,2.371,0,0,1,3.536,0L18.75,30.7,42.2,5.368a2.371,2.371,0,0,1,3.536,0l3.535,3.819a2.856,2.856,0,0,1,0,3.819L20.518,44.064A2.371,2.371,0,0,1,16.982,44.064Z" transform="translate(653.824 1329.512)" fill="#dfe7f5"/>
      <path id="Icon_awesome-check-74" data-name="Icon awesome-check" d="M16.982,44.064.732,26.51a2.856,2.856,0,0,1,0-3.819l3.535-3.819a2.371,2.371,0,0,1,3.536,0L18.75,30.7,42.2,5.368a2.371,2.371,0,0,1,3.536,0l3.535,3.819a2.856,2.856,0,0,1,0,3.819L20.518,44.064A2.371,2.371,0,0,1,16.982,44.064Z" transform="translate(781.824 1329.512)" fill="#dfe7f5"/>
      <path id="Icon_awesome-check-75" data-name="Icon awesome-check" d="M16.982,44.064.732,26.51a2.856,2.856,0,0,1,0-3.819l3.535-3.819a2.371,2.371,0,0,1,3.536,0L18.75,30.7,42.2,5.368a2.371,2.371,0,0,1,3.536,0l3.535,3.819a2.856,2.856,0,0,1,0,3.819L20.518,44.064A2.371,2.371,0,0,1,16.982,44.064Z" transform="translate(910.824 1329.512)" fill="#dfe7f5"/>
      <path id="Icon_awesome-check-76" data-name="Icon awesome-check" d="M16.982,44.064.732,26.51a2.856,2.856,0,0,1,0-3.819l3.535-3.819a2.371,2.371,0,0,1,3.536,0L18.75,30.7,42.2,5.368a2.371,2.371,0,0,1,3.536,0l3.535,3.819a2.856,2.856,0,0,1,0,3.819L20.518,44.064A2.371,2.371,0,0,1,16.982,44.064Z" transform="translate(1053.824 1329.512)" fill="#dfe7f5"/>
      <path id="Icon_awesome-check-77" data-name="Icon awesome-check" d="M16.982,44.064.732,26.51a2.856,2.856,0,0,1,0-3.819l3.535-3.819a2.371,2.371,0,0,1,3.536,0L18.75,30.7,42.2,5.368a2.371,2.371,0,0,1,3.536,0l3.535,3.819a2.856,2.856,0,0,1,0,3.819L20.518,44.064A2.371,2.371,0,0,1,16.982,44.064Z" transform="translate(1181.824 1329.512)" fill="#dfe7f5"/>
      <path id="Icon_awesome-check-78" data-name="Icon awesome-check" d="M16.982,44.064.732,26.51a2.856,2.856,0,0,1,0-3.819l3.535-3.819a2.371,2.371,0,0,1,3.536,0L18.75,30.7,42.2,5.368a2.371,2.371,0,0,1,3.536,0l3.535,3.819a2.856,2.856,0,0,1,0,3.819L20.518,44.064A2.371,2.371,0,0,1,16.982,44.064Z" transform="translate(1310.824 1329.512)" fill="#dfe7f5"/>
      <path id="Icon_awesome-check-79" data-name="Icon awesome-check" d="M16.982,44.064.732,26.51a2.856,2.856,0,0,1,0-3.819l3.535-3.819a2.371,2.371,0,0,1,3.536,0L18.75,30.7,42.2,5.368a2.371,2.371,0,0,1,3.536,0l3.535,3.819a2.856,2.856,0,0,1,0,3.819L20.518,44.064A2.371,2.371,0,0,1,16.982,44.064Z" transform="translate(1438.824 1329.512)" fill="#dfe7f5"/>
      <path id="Icon_awesome-check-80" data-name="Icon awesome-check" d="M16.982,44.064.732,26.51a2.856,2.856,0,0,1,0-3.819l3.535-3.819a2.371,2.371,0,0,1,3.536,0L18.75,30.7,42.2,5.368a2.371,2.371,0,0,1,3.536,0l3.535,3.819a2.856,2.856,0,0,1,0,3.819L20.518,44.064A2.371,2.371,0,0,1,16.982,44.064Z" transform="translate(1567.824 1329.512)" fill="#dfe7f5"/>
    </g>
    <g id="Group_29" data-name="Group 29" transform="translate(1.996 -1014)">
      <path id="Icon_awesome-check-81" data-name="Icon awesome-check" d="M16.982,44.064.732,26.51a2.856,2.856,0,0,1,0-3.819l3.535-3.819a2.371,2.371,0,0,1,3.536,0L18.75,30.7,42.2,5.368a2.371,2.371,0,0,1,3.536,0l3.535,3.819a2.856,2.856,0,0,1,0,3.819L20.518,44.064A2.371,2.371,0,0,1,16.982,44.064Z" transform="translate(396.824 1329.512)" fill="#dfe7f5"/>
      <path id="Icon_awesome-check-82" data-name="Icon awesome-check" d="M16.982,44.064.732,26.51a2.856,2.856,0,0,1,0-3.819l3.535-3.819a2.371,2.371,0,0,1,3.536,0L18.75,30.7,42.2,5.368a2.371,2.371,0,0,1,3.536,0l3.535,3.819a2.856,2.856,0,0,1,0,3.819L20.518,44.064A2.371,2.371,0,0,1,16.982,44.064Z" transform="translate(524.824 1329.512)" fill="#dfe7f5"/>
      <path id="Icon_awesome-check-83" data-name="Icon awesome-check" d="M16.982,44.064.732,26.51a2.856,2.856,0,0,1,0-3.819l3.535-3.819a2.371,2.371,0,0,1,3.536,0L18.75,30.7,42.2,5.368a2.371,2.371,0,0,1,3.536,0l3.535,3.819a2.856,2.856,0,0,1,0,3.819L20.518,44.064A2.371,2.371,0,0,1,16.982,44.064Z" transform="translate(653.824 1329.512)" fill="#dfe7f5"/>
      <path id="Icon_awesome-check-84" data-name="Icon awesome-check" d="M16.982,44.064.732,26.51a2.856,2.856,0,0,1,0-3.819l3.535-3.819a2.371,2.371,0,0,1,3.536,0L18.75,30.7,42.2,5.368a2.371,2.371,0,0,1,3.536,0l3.535,3.819a2.856,2.856,0,0,1,0,3.819L20.518,44.064A2.371,2.371,0,0,1,16.982,44.064Z" transform="translate(781.824 1329.512)" fill="#dfe7f5"/>
      <path id="Icon_awesome-check-85" data-name="Icon awesome-check" d="M16.982,44.064.732,26.51a2.856,2.856,0,0,1,0-3.819l3.535-3.819a2.371,2.371,0,0,1,3.536,0L18.75,30.7,42.2,5.368a2.371,2.371,0,0,1,3.536,0l3.535,3.819a2.856,2.856,0,0,1,0,3.819L20.518,44.064A2.371,2.371,0,0,1,16.982,44.064Z" transform="translate(910.824 1329.512)" fill="#dfe7f5"/>
      <path id="Icon_awesome-check-86" data-name="Icon awesome-check" d="M16.982,44.064.732,26.51a2.856,2.856,0,0,1,0-3.819l3.535-3.819a2.371,2.371,0,0,1,3.536,0L18.75,30.7,42.2,5.368a2.371,2.371,0,0,1,3.536,0l3.535,3.819a2.856,2.856,0,0,1,0,3.819L20.518,44.064A2.371,2.371,0,0,1,16.982,44.064Z" transform="translate(1053.824 1329.512)" fill="#dfe7f5"/>
      <path id="Icon_awesome-check-87" data-name="Icon awesome-check" d="M16.982,44.064.732,26.51a2.856,2.856,0,0,1,0-3.819l3.535-3.819a2.371,2.371,0,0,1,3.536,0L18.75,30.7,42.2,5.368a2.371,2.371,0,0,1,3.536,0l3.535,3.819a2.856,2.856,0,0,1,0,3.819L20.518,44.064A2.371,2.371,0,0,1,16.982,44.064Z" transform="translate(1181.824 1329.512)" fill="#dfe7f5"/>
      <path id="Icon_awesome-check-88" data-name="Icon awesome-check" d="M16.982,44.064.732,26.51a2.856,2.856,0,0,1,0-3.819l3.535-3.819a2.371,2.371,0,0,1,3.536,0L18.75,30.7,42.2,5.368a2.371,2.371,0,0,1,3.536,0l3.535,3.819a2.856,2.856,0,0,1,0,3.819L20.518,44.064A2.371,2.371,0,0,1,16.982,44.064Z" transform="translate(1310.824 1329.512)" fill="#dfe7f5"/>
      <path id="Icon_awesome-check-89" data-name="Icon awesome-check" d="M16.982,44.064.732,26.51a2.856,2.856,0,0,1,0-3.819l3.535-3.819a2.371,2.371,0,0,1,3.536,0L18.75,30.7,42.2,5.368a2.371,2.371,0,0,1,3.536,0l3.535,3.819a2.856,2.856,0,0,1,0,3.819L20.518,44.064A2.371,2.371,0,0,1,16.982,44.064Z" transform="translate(1438.824 1329.512)" fill="#dfe7f5"/>
      <path id="Icon_awesome-check-90" data-name="Icon awesome-check" d="M16.982,44.064.732,26.51a2.856,2.856,0,0,1,0-3.819l3.535-3.819a2.371,2.371,0,0,1,3.536,0L18.75,30.7,42.2,5.368a2.371,2.371,0,0,1,3.536,0l3.535,3.819a2.856,2.856,0,0,1,0,3.819L20.518,44.064A2.371,2.371,0,0,1,16.982,44.064Z" transform="translate(1567.824 1329.512)" fill="#dfe7f5"/>
    </g>
    <g id="Group_30" data-name="Group 30" transform="translate(-0.004 -1142)">
      <path id="Icon_awesome-check-91" data-name="Icon awesome-check" d="M16.982,44.064.732,26.51a2.856,2.856,0,0,1,0-3.819l3.535-3.819a2.371,2.371,0,0,1,3.536,0L18.75,30.7,42.2,5.368a2.371,2.371,0,0,1,3.536,0l3.535,3.819a2.856,2.856,0,0,1,0,3.819L20.518,44.064A2.371,2.371,0,0,1,16.982,44.064Z" transform="translate(396.824 1330.512)" fill="#dfe7f5"/>
      <path id="Icon_awesome-check-92" data-name="Icon awesome-check" d="M16.982,44.064.732,26.51a2.856,2.856,0,0,1,0-3.819l3.535-3.819a2.371,2.371,0,0,1,3.536,0L18.75,30.7,42.2,5.368a2.371,2.371,0,0,1,3.536,0l3.535,3.819a2.856,2.856,0,0,1,0,3.819L20.518,44.064A2.371,2.371,0,0,1,16.982,44.064Z" transform="translate(524.824 1329.512)" fill="#dfe7f5"/>
      <path id="Icon_awesome-check-93" data-name="Icon awesome-check" d="M16.982,44.064.732,26.51a2.856,2.856,0,0,1,0-3.819l3.535-3.819a2.371,2.371,0,0,1,3.536,0L18.75,30.7,42.2,5.368a2.371,2.371,0,0,1,3.536,0l3.535,3.819a2.856,2.856,0,0,1,0,3.819L20.518,44.064A2.371,2.371,0,0,1,16.982,44.064Z" transform="translate(653.824 1329.512)" fill="#dfe7f5"/>
      <path id="Icon_awesome-check-94" data-name="Icon awesome-check" d="M16.982,44.064.732,26.51a2.856,2.856,0,0,1,0-3.819l3.535-3.819a2.371,2.371,0,0,1,3.536,0L18.75,30.7,42.2,5.368a2.371,2.371,0,0,1,3.536,0l3.535,3.819a2.856,2.856,0,0,1,0,3.819L20.518,44.064A2.371,2.371,0,0,1,16.982,44.064Z" transform="translate(781.824 1329.512)" fill="#dfe7f5"/>
      <path id="Icon_awesome-check-95" data-name="Icon awesome-check" d="M16.982,44.064.732,26.51a2.856,2.856,0,0,1,0-3.819l3.535-3.819a2.371,2.371,0,0,1,3.536,0L18.75,30.7,42.2,5.368a2.371,2.371,0,0,1,3.536,0l3.535,3.819a2.856,2.856,0,0,1,0,3.819L20.518,44.064A2.371,2.371,0,0,1,16.982,44.064Z" transform="translate(910.824 1329.512)" fill="#dfe7f5"/>
      <path id="Icon_awesome-check-96" data-name="Icon awesome-check" d="M16.982,44.064.732,26.51a2.856,2.856,0,0,1,0-3.819l3.535-3.819a2.371,2.371,0,0,1,3.536,0L18.75,30.7,42.2,5.368a2.371,2.371,0,0,1,3.536,0l3.535,3.819a2.856,2.856,0,0,1,0,3.819L20.518,44.064A2.371,2.371,0,0,1,16.982,44.064Z" transform="translate(1053.824 1329.512)" fill="#dfe7f5"/>
      <path id="Icon_awesome-check-97" data-name="Icon awesome-check" d="M16.982,44.064.732,26.51a2.856,2.856,0,0,1,0-3.819l3.535-3.819a2.371,2.371,0,0,1,3.536,0L18.75,30.7,42.2,5.368a2.371,2.371,0,0,1,3.536,0l3.535,3.819a2.856,2.856,0,0,1,0,3.819L20.518,44.064A2.371,2.371,0,0,1,16.982,44.064Z" transform="translate(1181.824 1329.512)" fill="#dfe7f5"/>
      <path id="Icon_awesome-check-98" data-name="Icon awesome-check" d="M16.982,44.064.732,26.51a2.856,2.856,0,0,1,0-3.819l3.535-3.819a2.371,2.371,0,0,1,3.536,0L18.75,30.7,42.2,5.368a2.371,2.371,0,0,1,3.536,0l3.535,3.819a2.856,2.856,0,0,1,0,3.819L20.518,44.064A2.371,2.371,0,0,1,16.982,44.064Z" transform="translate(1310.824 1329.512)" fill="#dfe7f5"/>
      <path id="Icon_awesome-check-99" data-name="Icon awesome-check" d="M16.982,44.064.732,26.51a2.856,2.856,0,0,1,0-3.819l3.535-3.819a2.371,2.371,0,0,1,3.536,0L18.75,30.7,42.2,5.368a2.371,2.371,0,0,1,3.536,0l3.535,3.819a2.856,2.856,0,0,1,0,3.819L20.518,44.064A2.371,2.371,0,0,1,16.982,44.064Z" transform="translate(1438.824 1329.512)" fill="#dfe7f5"/>
      <path id="Icon_awesome-check-100" data-name="Icon awesome-check" d="M16.982,44.064.732,26.51a2.856,2.856,0,0,1,0-3.819l3.535-3.819a2.371,2.371,0,0,1,3.536,0L18.75,30.7,42.2,5.368a2.371,2.371,0,0,1,3.536,0l3.535,3.819a2.856,2.856,0,0,1,0,3.819L20.518,44.064A2.371,2.371,0,0,1,16.982,44.064Z" transform="translate(1567.824 1329.512)" fill="#dfe7f5"/>
    </g>
  </g>
</svg>
