<?xml version="1.0" encoding="UTF-8"?>
<!DOCTYPE svg PUBLIC "-//W3C//DTD SVG 1.1//EN" "http://www.w3.org/Graphics/SVG/1.1/DTD/svg11.dtd">
<!-- Creator: CorelDRAW X7 -->
<svg xmlns="http://www.w3.org/2000/svg" xml:space="preserve" width="210mm" height="297mm" version="1.1" style="shape-rendering:geometricPrecision; text-rendering:geometricPrecision; image-rendering:optimizeQuality; fill-rule:evenodd; clip-rule:evenodd"
viewBox="0 0 21000 29700"
 xmlns:xlink="http://www.w3.org/1999/xlink"
 aria-hidden="true"
 focusable="false"
 data-prefix="fas"
 data-icon="certificate"
 role="img">
 <defs>
  <style type="text/css">
   <![CDATA[
    .fil0 {fill:#FEFEFE}
   ]]>
  </style>
 </defs>
 <g id="Layer_x0020_1">
  <metadata id="CorelCorpID_0Corel-Layer"/>
  <path class="fil0" d="M18811 14847l1886 -1846c562,-532 300,-1478 -438,-1655l-2569 -656 724 -2543c205,-732 -485,-1422 -1216,-1217l-2543 725 -656 -2571c-173,-726 -1130,-991 -1654,-438l-1845 1901 -1845 -1900c-518,-548 -1479,-297 -1654,437l-656 2571 -2543 -725c-731,-205 -1421,485 -1216,1217l724 2543 -2569 656c-738,177 -1000,1123 -438,1655l1886 1846 -1886 1846c-562,532 -300,1478 438,1654l2569 656 -724 2544c-205,731 485,1421 1216,1217l2543 -725 656 2570c182,762 1136,985 1654,438l1845 -1887 1845 1887c513,553 1476,307 1654,-438l656 -2570 2543 725c731,204 1421,-486 1216,-1217l-724 -2544 2569 -656c738,-176 1000,-1122 438,-1654l-1886 -1846 0 0z"/>
 </g>
</svg>
