<svg xmlns="http://www.w3.org/2000/svg" width="1506.5" height="789.5" viewBox="0 0 1506.5 789.5">
  <g id="Group_57" data-name="Group 57" transform="translate(-1279.5 1835.5)">
    <g id="Group_56" data-name="Group 56">
      <g id="Group_55" data-name="Group 55" transform="translate(20 9)">
        <rect id="Rectangle_4" data-name="Rectangle 4" width="1500" height="789" transform="translate(1266 -1844)" fill="#fff"/>
        <rect id="Rectangle_5" data-name="Rectangle 5" width="1441" height="76" transform="translate(1325 -1844)" fill="#3e64ff"/>
        <rect id="Rectangle_6" data-name="Rectangle 6" width="789" height="76" transform="translate(1335.5 -1844.5) rotate(90)" fill="#3e64ff"/>
        <circle id="Ellipse_14" data-name="Ellipse 14" cx="22.5" cy="22.5" r="22.5" transform="translate(1366 -1828)" fill="#fff"/>
        <circle id="Ellipse_16" data-name="Ellipse 16" cx="22.5" cy="22.5" r="22.5" transform="translate(1436 -1828)" fill="#fff"/>
        <circle id="Ellipse_17" data-name="Ellipse 17" cx="22.5" cy="22.5" r="22.5" transform="translate(1576 -1828)" fill="#fff"/>
        <circle id="Ellipse_18" data-name="Ellipse 18" cx="22.5" cy="22.5" r="22.5" transform="translate(1646 -1828)" fill="#fff"/>
        <circle id="Ellipse_19" data-name="Ellipse 19" cx="22.5" cy="22.5" r="22.5" transform="translate(1786 -1828)" fill="#fff"/>
        <circle id="Ellipse_20" data-name="Ellipse 20" cx="22.5" cy="22.5" r="22.5" transform="translate(1856 -1828)" fill="#fff"/>
        <circle id="Ellipse_21" data-name="Ellipse 21" cx="22.5" cy="22.5" r="22.5" transform="translate(1996 -1828)" fill="#fff"/>
        <circle id="Ellipse_22" data-name="Ellipse 22" cx="22.5" cy="22.5" r="22.5" transform="translate(2136 -1828)" fill="#fff"/>
        <circle id="Ellipse_23" data-name="Ellipse 23" cx="22.5" cy="22.5" r="22.5" transform="translate(2206 -1828)" fill="#fff"/>
        <circle id="Ellipse_24" data-name="Ellipse 24" cx="22.5" cy="22.5" r="22.5" transform="translate(2346 -1828)" fill="#fff"/>
        <circle id="Ellipse_25" data-name="Ellipse 25" cx="22.5" cy="22.5" r="22.5" transform="translate(2486 -1828)" fill="#fff"/>
        <circle id="Ellipse_26" data-name="Ellipse 26" cx="22.5" cy="22.5" r="22.5" transform="translate(1506 -1828)" fill="#fff"/>
        <circle id="Ellipse_27" data-name="Ellipse 27" cx="22.5" cy="22.5" r="22.5" transform="translate(1716 -1828)" fill="#fff"/>
        <circle id="Ellipse_28" data-name="Ellipse 28" cx="22.5" cy="22.5" r="22.5" transform="translate(1926 -1828)" fill="#fff"/>
        <circle id="Ellipse_29" data-name="Ellipse 29" cx="22.5" cy="22.5" r="22.5" transform="translate(2066 -1828)" fill="#fff"/>
        <circle id="Ellipse_30" data-name="Ellipse 30" cx="22.5" cy="22.5" r="22.5" transform="translate(2276 -1828)" fill="#fff"/>
        <circle id="Ellipse_31" data-name="Ellipse 31" cx="22.5" cy="22.5" r="22.5" transform="translate(2416 -1828)" fill="#fff"/>
        <circle id="Ellipse_32" data-name="Ellipse 32" cx="22.5" cy="22.5" r="22.5" transform="translate(2556 -1828)" fill="#fff"/>
        <circle id="Ellipse_33" data-name="Ellipse 33" cx="22.5" cy="22.5" r="22.5" transform="translate(2626 -1828)" fill="#fff"/>
        <circle id="Ellipse_34" data-name="Ellipse 34" cx="22.5" cy="22.5" r="22.5" transform="translate(2696 -1828)" fill="#fff"/>
        <text id="_1" data-name="1" transform="translate(1388.5 -1796)" font-size="30" font-family="NirmalaUI-Bold, Nirmala UI" font-weight="700"><tspan x="-8.628" y="0">1</tspan></text>
        <text id="_20" data-name="20" transform="translate(2718.5 -1796)" font-size="30" font-family="NirmalaUI-Bold, Nirmala UI" font-weight="700"><tspan x="-17.256" y="0">20</tspan></text>
        <text id="_2" data-name="2" transform="translate(1457.5 -1796)" font-size="30" font-family="NirmalaUI-Bold, Nirmala UI" font-weight="700"><tspan x="-8.628" y="0">2</tspan></text>
        <text id="_3" data-name="3" transform="translate(1528.5 -1796)" font-size="30" font-family="NirmalaUI-Bold, Nirmala UI" font-weight="700"><tspan x="-8.628" y="0">3</tspan></text>
        <text id="_4" data-name="4" transform="translate(1598.5 -1796)" font-size="30" font-family="NirmalaUI-Bold, Nirmala UI" font-weight="700"><tspan x="-8.628" y="0">4</tspan></text>
        <text id="_5" data-name="5" transform="translate(1668.5 -1796)" font-size="30" font-family="NirmalaUI-Bold, Nirmala UI" font-weight="700"><tspan x="-8.628" y="0">5</tspan></text>
        <text id="_6" data-name="6" transform="translate(1738.5 -1796)" font-size="30" font-family="NirmalaUI-Bold, Nirmala UI" font-weight="700"><tspan x="-8.628" y="0">6</tspan></text>
        <text id="_7" data-name="7" transform="translate(1808.5 -1796)" font-size="30" font-family="NirmalaUI-Bold, Nirmala UI" font-weight="700"><tspan x="-8.628" y="0">7</tspan></text>
        <text id="_8" data-name="8" transform="translate(1878.5 -1796)" font-size="30" font-family="NirmalaUI-Bold, Nirmala UI" font-weight="700"><tspan x="-8.628" y="0">8</tspan></text>
        <text id="_9" data-name="9" transform="translate(1948.5 -1796)" font-size="30" font-family="NirmalaUI-Bold, Nirmala UI" font-weight="700"><tspan x="-8.628" y="0">9</tspan></text>
        <text id="_10" data-name="10" transform="translate(2017.5 -1796)" font-size="30" font-family="NirmalaUI-Bold, Nirmala UI" font-weight="700"><tspan x="-17.256" y="0">10</tspan></text>
        <text id="_11" data-name="11" transform="translate(2088.5 -1796)" font-size="30" font-family="NirmalaUI-Bold, Nirmala UI" font-weight="700"><tspan x="-17.256" y="0">11</tspan></text>
        <text id="_12" data-name="12" transform="translate(2156.5 -1796)" font-size="30" font-family="NirmalaUI-Bold, Nirmala UI" font-weight="700"><tspan x="-17.256" y="0">12</tspan></text>
        <text id="_13" data-name="13" transform="translate(2226.5 -1796)" font-size="30" font-family="NirmalaUI-Bold, Nirmala UI" font-weight="700"><tspan x="-17.256" y="0">13</tspan></text>
        <text id="_14" data-name="14" transform="translate(2296.5 -1796)" font-size="30" font-family="NirmalaUI-Bold, Nirmala UI" font-weight="700"><tspan x="-17.256" y="0">14</tspan></text>
        <text id="_15" data-name="15" transform="translate(2368.5 -1796)" font-size="30" font-family="NirmalaUI-Bold, Nirmala UI" font-weight="700"><tspan x="-17.256" y="0">15</tspan></text>
        <text id="_16" data-name="16" transform="translate(2438.5 -1796)" font-size="30" font-family="NirmalaUI-Bold, Nirmala UI" font-weight="700"><tspan x="-17.256" y="0">16</tspan></text>
        <text id="_17" data-name="17" transform="translate(2508.5 -1796)" font-size="30" font-family="NirmalaUI-Bold, Nirmala UI" font-weight="700"><tspan x="-17.256" y="0">17</tspan></text>
        <text id="_18" data-name="18" transform="translate(2575.5 -1796)" font-size="30" font-family="NirmalaUI-Bold, Nirmala UI" font-weight="700"><tspan x="-17.256" y="0">18</tspan></text>
        <text id="_19" data-name="19" transform="translate(2647.5 -1796)" font-size="30" font-family="NirmalaUI-Bold, Nirmala UI" font-weight="700"><tspan x="-17.256" y="0">19</tspan></text>
        <g id="Group_33" data-name="Group 33" transform="translate(66 10)">
          <circle id="Ellipse_35" data-name="Ellipse 35" cx="22.5" cy="22.5" r="22.5" transform="translate(1345 -1768) rotate(90)" fill="#3e64ff"/>
          <circle id="Ellipse_36" data-name="Ellipse 36" cx="22.5" cy="22.5" r="22.5" transform="translate(1345 -1698) rotate(90)" fill="#dfe7f5"/>
          <circle id="Ellipse_40" data-name="Ellipse 40" cx="22.5" cy="22.5" r="22.5" transform="translate(1345 -1628) rotate(90)" fill="#dfe7f5"/>
          <circle id="Ellipse_41" data-name="Ellipse 41" cx="22.5" cy="22.5" r="22.5" transform="translate(1345 -1558) rotate(90)" fill="#dfe7f5"/>
          <circle id="Ellipse_42" data-name="Ellipse 42" cx="22.5" cy="22.5" r="22.5" transform="translate(1345 -1487) rotate(90)" fill="#dfe7f5"/>
          <circle id="Ellipse_43" data-name="Ellipse 43" cx="22.5" cy="22.5" r="22.5" transform="translate(1345 -1417) rotate(90)" fill="#dfe7f5"/>
          <circle id="Ellipse_44" data-name="Ellipse 44" cx="22.5" cy="22.5" r="22.5" transform="translate(1345 -1347) rotate(90)" fill="#dfe7f5"/>
          <circle id="Ellipse_45" data-name="Ellipse 45" cx="22.5" cy="22.5" r="22.5" transform="translate(1345 -1277) rotate(90)" fill="#dfe7f5"/>
          <circle id="Ellipse_46" data-name="Ellipse 46" cx="22.5" cy="22.5" r="22.5" transform="translate(1345 -1207) rotate(90)" fill="#dfe7f5"/>
          <circle id="Ellipse_47" data-name="Ellipse 47" cx="22.5" cy="22.5" r="22.5" transform="translate(1345 -1137) rotate(90)" fill="#dfe7f5"/>
        </g>
        <g id="Group_34" data-name="Group 34" transform="translate(136 10)">
          <circle id="Ellipse_35-2" data-name="Ellipse 35" cx="22.5" cy="22.5" r="22.5" transform="translate(1345 -1768) rotate(90)" fill="#dfe7f5"/>
          <circle id="Ellipse_36-2" data-name="Ellipse 36" cx="22.5" cy="22.5" r="22.5" transform="translate(1345 -1698) rotate(90)" fill="#dfe7f5"/>
          <circle id="Ellipse_40-2" data-name="Ellipse 40" cx="22.5" cy="22.5" r="22.5" transform="translate(1345 -1628) rotate(90)" fill="#dfe7f5"/>
          <circle id="Ellipse_41-2" data-name="Ellipse 41" cx="22.5" cy="22.5" r="22.5" transform="translate(1345 -1558) rotate(90)" fill="#dfe7f5"/>
          <circle id="Ellipse_42-2" data-name="Ellipse 42" cx="22.5" cy="22.5" r="22.5" transform="translate(1345 -1487) rotate(90)" fill="#dfe7f5"/>
          <circle id="Ellipse_43-2" data-name="Ellipse 43" cx="22.5" cy="22.5" r="22.5" transform="translate(1345 -1417) rotate(90)" fill="#dfe7f5"/>
          <circle id="Ellipse_44-2" data-name="Ellipse 44" cx="22.5" cy="22.5" r="22.5" transform="translate(1345 -1347) rotate(90)" fill="#dfe7f5"/>
          <circle id="Ellipse_45-2" data-name="Ellipse 45" cx="22.5" cy="22.5" r="22.5" transform="translate(1345 -1277) rotate(90)" fill="#dfe7f5"/>
          <circle id="Ellipse_46-2" data-name="Ellipse 46" cx="22.5" cy="22.5" r="22.5" transform="translate(1345 -1207) rotate(90)" fill="#dfe7f5"/>
          <circle id="Ellipse_47-2" data-name="Ellipse 47" cx="22.5" cy="22.5" r="22.5" transform="translate(1345 -1137) rotate(90)" fill="#dfe7f5"/>
        </g>
        <g id="Group_35" data-name="Group 35" transform="translate(206 10)">
          <circle id="Ellipse_35-3" data-name="Ellipse 35" cx="22.5" cy="22.5" r="22.5" transform="translate(1345 -1768) rotate(90)" fill="#dfe7f5"/>
          <circle id="Ellipse_36-3" data-name="Ellipse 36" cx="22.5" cy="22.5" r="22.5" transform="translate(1345 -1698) rotate(90)" fill="#dfe7f5"/>
          <circle id="Ellipse_40-3" data-name="Ellipse 40" cx="22.5" cy="22.5" r="22.5" transform="translate(1345 -1628) rotate(90)" fill="#dfe7f5"/>
          <circle id="Ellipse_41-3" data-name="Ellipse 41" cx="22.5" cy="22.5" r="22.5" transform="translate(1345 -1558) rotate(90)" fill="#dfe7f5"/>
          <circle id="Ellipse_42-3" data-name="Ellipse 42" cx="22.5" cy="22.5" r="22.5" transform="translate(1345 -1487) rotate(90)" fill="#dfe7f5"/>
          <circle id="Ellipse_43-3" data-name="Ellipse 43" cx="22.5" cy="22.5" r="22.5" transform="translate(1345 -1417) rotate(90)" fill="#dfe7f5"/>
          <circle id="Ellipse_44-3" data-name="Ellipse 44" cx="22.5" cy="22.5" r="22.5" transform="translate(1345 -1347) rotate(90)" fill="#dfe7f5"/>
          <circle id="Ellipse_45-3" data-name="Ellipse 45" cx="22.5" cy="22.5" r="22.5" transform="translate(1345 -1277) rotate(90)" fill="#dfe7f5"/>
          <circle id="Ellipse_46-3" data-name="Ellipse 46" cx="22.5" cy="22.5" r="22.5" transform="translate(1345 -1207) rotate(90)" fill="#dfe7f5"/>
          <circle id="Ellipse_47-3" data-name="Ellipse 47" cx="22.5" cy="22.5" r="22.5" transform="translate(1345 -1137) rotate(90)" fill="#dfe7f5"/>
        </g>
        <g id="Group_36" data-name="Group 36" transform="translate(276 10)">
          <circle id="Ellipse_35-4" data-name="Ellipse 35" cx="22.5" cy="22.5" r="22.5" transform="translate(1345 -1768) rotate(90)" fill="#dfe7f5"/>
          <circle id="Ellipse_36-4" data-name="Ellipse 36" cx="22.5" cy="22.5" r="22.5" transform="translate(1345 -1698) rotate(90)" fill="#dfe7f5"/>
          <circle id="Ellipse_40-4" data-name="Ellipse 40" cx="22.5" cy="22.5" r="22.5" transform="translate(1345 -1628) rotate(90)" fill="#dfe7f5"/>
          <circle id="Ellipse_41-4" data-name="Ellipse 41" cx="22.5" cy="22.5" r="22.5" transform="translate(1345 -1558) rotate(90)" fill="#dfe7f5"/>
          <circle id="Ellipse_42-4" data-name="Ellipse 42" cx="22.5" cy="22.5" r="22.5" transform="translate(1345 -1487) rotate(90)" fill="#dfe7f5"/>
          <circle id="Ellipse_43-4" data-name="Ellipse 43" cx="22.5" cy="22.5" r="22.5" transform="translate(1345 -1417) rotate(90)" fill="#dfe7f5"/>
          <circle id="Ellipse_44-4" data-name="Ellipse 44" cx="22.5" cy="22.5" r="22.5" transform="translate(1345 -1347) rotate(90)" fill="#dfe7f5"/>
          <circle id="Ellipse_45-4" data-name="Ellipse 45" cx="22.5" cy="22.5" r="22.5" transform="translate(1345 -1277) rotate(90)" fill="#dfe7f5"/>
          <circle id="Ellipse_46-4" data-name="Ellipse 46" cx="22.5" cy="22.5" r="22.5" transform="translate(1345 -1207) rotate(90)" fill="#dfe7f5"/>
          <circle id="Ellipse_47-4" data-name="Ellipse 47" cx="22.5" cy="22.5" r="22.5" transform="translate(1345 -1137) rotate(90)" fill="#dfe7f5"/>
        </g>
        <g id="Group_37" data-name="Group 37" transform="translate(346 10)">
          <circle id="Ellipse_35-5" data-name="Ellipse 35" cx="22.5" cy="22.5" r="22.5" transform="translate(1345 -1768) rotate(90)" fill="#dfe7f5"/>
          <circle id="Ellipse_36-5" data-name="Ellipse 36" cx="22.5" cy="22.5" r="22.5" transform="translate(1345 -1698) rotate(90)" fill="#dfe7f5"/>
          <circle id="Ellipse_40-5" data-name="Ellipse 40" cx="22.5" cy="22.5" r="22.5" transform="translate(1345 -1628) rotate(90)" fill="#dfe7f5"/>
          <circle id="Ellipse_41-5" data-name="Ellipse 41" cx="22.5" cy="22.5" r="22.5" transform="translate(1345 -1558) rotate(90)" fill="#dfe7f5"/>
          <circle id="Ellipse_42-5" data-name="Ellipse 42" cx="22.5" cy="22.5" r="22.5" transform="translate(1345 -1487) rotate(90)" fill="#dfe7f5"/>
          <circle id="Ellipse_43-5" data-name="Ellipse 43" cx="22.5" cy="22.5" r="22.5" transform="translate(1345 -1417) rotate(90)" fill="#dfe7f5"/>
          <circle id="Ellipse_44-5" data-name="Ellipse 44" cx="22.5" cy="22.5" r="22.5" transform="translate(1345 -1347) rotate(90)" fill="#dfe7f5"/>
          <circle id="Ellipse_45-5" data-name="Ellipse 45" cx="22.5" cy="22.5" r="22.5" transform="translate(1345 -1277) rotate(90)" fill="#dfe7f5"/>
          <circle id="Ellipse_46-5" data-name="Ellipse 46" cx="22.5" cy="22.5" r="22.5" transform="translate(1345 -1207) rotate(90)" fill="#dfe7f5"/>
          <circle id="Ellipse_47-5" data-name="Ellipse 47" cx="22.5" cy="22.5" r="22.5" transform="translate(1345 -1137) rotate(90)" fill="#dfe7f5"/>
        </g>
        <g id="Group_38" data-name="Group 38" transform="translate(416 10)">
          <circle id="Ellipse_35-6" data-name="Ellipse 35" cx="22.5" cy="22.5" r="22.5" transform="translate(1345 -1768) rotate(90)" fill="#dfe7f5"/>
          <circle id="Ellipse_36-6" data-name="Ellipse 36" cx="22.5" cy="22.5" r="22.5" transform="translate(1345 -1698) rotate(90)" fill="#dfe7f5"/>
          <circle id="Ellipse_40-6" data-name="Ellipse 40" cx="22.5" cy="22.5" r="22.5" transform="translate(1345 -1628) rotate(90)" fill="#dfe7f5"/>
          <circle id="Ellipse_41-6" data-name="Ellipse 41" cx="22.5" cy="22.5" r="22.5" transform="translate(1345 -1558) rotate(90)" fill="#dfe7f5"/>
          <circle id="Ellipse_42-6" data-name="Ellipse 42" cx="22.5" cy="22.5" r="22.5" transform="translate(1345 -1487) rotate(90)" fill="#dfe7f5"/>
          <circle id="Ellipse_43-6" data-name="Ellipse 43" cx="22.5" cy="22.5" r="22.5" transform="translate(1345 -1417) rotate(90)" fill="#dfe7f5"/>
          <circle id="Ellipse_44-6" data-name="Ellipse 44" cx="22.5" cy="22.5" r="22.5" transform="translate(1345 -1347) rotate(90)" fill="#dfe7f5"/>
          <circle id="Ellipse_45-6" data-name="Ellipse 45" cx="22.5" cy="22.5" r="22.5" transform="translate(1345 -1277) rotate(90)" fill="#dfe7f5"/>
          <circle id="Ellipse_46-6" data-name="Ellipse 46" cx="22.5" cy="22.5" r="22.5" transform="translate(1345 -1207) rotate(90)" fill="#dfe7f5"/>
          <circle id="Ellipse_47-6" data-name="Ellipse 47" cx="22.5" cy="22.5" r="22.5" transform="translate(1345 -1137) rotate(90)" fill="#dfe7f5"/>
        </g>
        <g id="Group_39" data-name="Group 39" transform="translate(486 10)">
          <circle id="Ellipse_35-7" data-name="Ellipse 35" cx="22.5" cy="22.5" r="22.5" transform="translate(1345 -1768) rotate(90)" fill="#dfe7f5"/>
          <circle id="Ellipse_36-7" data-name="Ellipse 36" cx="22.5" cy="22.5" r="22.5" transform="translate(1345 -1698) rotate(90)" fill="#dfe7f5"/>
          <circle id="Ellipse_40-7" data-name="Ellipse 40" cx="22.5" cy="22.5" r="22.5" transform="translate(1345 -1628) rotate(90)" fill="#dfe7f5"/>
          <circle id="Ellipse_41-7" data-name="Ellipse 41" cx="22.5" cy="22.5" r="22.5" transform="translate(1345 -1558) rotate(90)" fill="#dfe7f5"/>
          <circle id="Ellipse_42-7" data-name="Ellipse 42" cx="22.5" cy="22.5" r="22.5" transform="translate(1345 -1487) rotate(90)" fill="#dfe7f5"/>
          <circle id="Ellipse_43-7" data-name="Ellipse 43" cx="22.5" cy="22.5" r="22.5" transform="translate(1345 -1417) rotate(90)" fill="#dfe7f5"/>
          <circle id="Ellipse_44-7" data-name="Ellipse 44" cx="22.5" cy="22.5" r="22.5" transform="translate(1345 -1347) rotate(90)" fill="#dfe7f5"/>
          <circle id="Ellipse_45-7" data-name="Ellipse 45" cx="22.5" cy="22.5" r="22.5" transform="translate(1345 -1277) rotate(90)" fill="#dfe7f5"/>
          <circle id="Ellipse_46-7" data-name="Ellipse 46" cx="22.5" cy="22.5" r="22.5" transform="translate(1345 -1207) rotate(90)" fill="#dfe7f5"/>
          <circle id="Ellipse_47-7" data-name="Ellipse 47" cx="22.5" cy="22.5" r="22.5" transform="translate(1345 -1137) rotate(90)" fill="#dfe7f5"/>
        </g>
        <g id="Group_40" data-name="Group 40" transform="translate(556 10)">
          <circle id="Ellipse_35-8" data-name="Ellipse 35" cx="22.5" cy="22.5" r="22.5" transform="translate(1345 -1768) rotate(90)" fill="#dfe7f5"/>
          <circle id="Ellipse_36-8" data-name="Ellipse 36" cx="22.5" cy="22.5" r="22.5" transform="translate(1345 -1698) rotate(90)" fill="#dfe7f5"/>
          <circle id="Ellipse_40-8" data-name="Ellipse 40" cx="22.5" cy="22.5" r="22.5" transform="translate(1345 -1628) rotate(90)" fill="#dfe7f5"/>
          <circle id="Ellipse_41-8" data-name="Ellipse 41" cx="22.5" cy="22.5" r="22.5" transform="translate(1345 -1558) rotate(90)" fill="#dfe7f5"/>
          <circle id="Ellipse_42-8" data-name="Ellipse 42" cx="22.5" cy="22.5" r="22.5" transform="translate(1345 -1487) rotate(90)" fill="#dfe7f5"/>
          <circle id="Ellipse_43-8" data-name="Ellipse 43" cx="22.5" cy="22.5" r="22.5" transform="translate(1345 -1417) rotate(90)" fill="#dfe7f5"/>
          <circle id="Ellipse_44-8" data-name="Ellipse 44" cx="22.5" cy="22.5" r="22.5" transform="translate(1345 -1347) rotate(90)" fill="#dfe7f5"/>
          <circle id="Ellipse_45-8" data-name="Ellipse 45" cx="22.5" cy="22.5" r="22.5" transform="translate(1345 -1277) rotate(90)" fill="#dfe7f5"/>
          <circle id="Ellipse_46-8" data-name="Ellipse 46" cx="22.5" cy="22.5" r="22.5" transform="translate(1345 -1207) rotate(90)" fill="#dfe7f5"/>
          <circle id="Ellipse_47-8" data-name="Ellipse 47" cx="22.5" cy="22.5" r="22.5" transform="translate(1345 -1137) rotate(90)" fill="#dfe7f5"/>
        </g>
        <g id="Group_41" data-name="Group 41" transform="translate(626 10)">
          <circle id="Ellipse_35-9" data-name="Ellipse 35" cx="22.5" cy="22.5" r="22.5" transform="translate(1345 -1768) rotate(90)" fill="#dfe7f5"/>
          <circle id="Ellipse_36-9" data-name="Ellipse 36" cx="22.5" cy="22.5" r="22.5" transform="translate(1345 -1698) rotate(90)" fill="#dfe7f5"/>
          <circle id="Ellipse_40-9" data-name="Ellipse 40" cx="22.5" cy="22.5" r="22.5" transform="translate(1345 -1628) rotate(90)" fill="#dfe7f5"/>
          <circle id="Ellipse_41-9" data-name="Ellipse 41" cx="22.5" cy="22.5" r="22.5" transform="translate(1345 -1558) rotate(90)" fill="#dfe7f5"/>
          <circle id="Ellipse_42-9" data-name="Ellipse 42" cx="22.5" cy="22.5" r="22.5" transform="translate(1345 -1487) rotate(90)" fill="#dfe7f5"/>
          <circle id="Ellipse_43-9" data-name="Ellipse 43" cx="22.5" cy="22.5" r="22.5" transform="translate(1345 -1417) rotate(90)" fill="#dfe7f5"/>
          <circle id="Ellipse_44-9" data-name="Ellipse 44" cx="22.5" cy="22.5" r="22.5" transform="translate(1345 -1347) rotate(90)" fill="#dfe7f5"/>
          <circle id="Ellipse_45-9" data-name="Ellipse 45" cx="22.5" cy="22.5" r="22.5" transform="translate(1345 -1277) rotate(90)" fill="#dfe7f5"/>
          <circle id="Ellipse_46-9" data-name="Ellipse 46" cx="22.5" cy="22.5" r="22.5" transform="translate(1345 -1207) rotate(90)" fill="#dfe7f5"/>
          <circle id="Ellipse_47-9" data-name="Ellipse 47" cx="22.5" cy="22.5" r="22.5" transform="translate(1345 -1137) rotate(90)" fill="#dfe7f5"/>
        </g>
        <g id="Group_42" data-name="Group 42" transform="translate(696 10)">
          <circle id="Ellipse_35-10" data-name="Ellipse 35" cx="22.5" cy="22.5" r="22.5" transform="translate(1345 -1768) rotate(90)" fill="#dfe7f5"/>
          <circle id="Ellipse_36-10" data-name="Ellipse 36" cx="22.5" cy="22.5" r="22.5" transform="translate(1345 -1698) rotate(90)" fill="#dfe7f5"/>
          <circle id="Ellipse_40-10" data-name="Ellipse 40" cx="22.5" cy="22.5" r="22.5" transform="translate(1345 -1628) rotate(90)" fill="#dfe7f5"/>
          <circle id="Ellipse_41-10" data-name="Ellipse 41" cx="22.5" cy="22.5" r="22.5" transform="translate(1345 -1558) rotate(90)" fill="#dfe7f5"/>
          <circle id="Ellipse_42-10" data-name="Ellipse 42" cx="22.5" cy="22.5" r="22.5" transform="translate(1345 -1487) rotate(90)" fill="#dfe7f5"/>
          <circle id="Ellipse_43-10" data-name="Ellipse 43" cx="22.5" cy="22.5" r="22.5" transform="translate(1345 -1417) rotate(90)" fill="#dfe7f5"/>
          <circle id="Ellipse_44-10" data-name="Ellipse 44" cx="22.5" cy="22.5" r="22.5" transform="translate(1345 -1347) rotate(90)" fill="#dfe7f5"/>
          <circle id="Ellipse_45-10" data-name="Ellipse 45" cx="22.5" cy="22.5" r="22.5" transform="translate(1345 -1277) rotate(90)" fill="#dfe7f5"/>
          <circle id="Ellipse_46-10" data-name="Ellipse 46" cx="22.5" cy="22.5" r="22.5" transform="translate(1345 -1207) rotate(90)" fill="#dfe7f5"/>
          <circle id="Ellipse_47-10" data-name="Ellipse 47" cx="22.5" cy="22.5" r="22.5" transform="translate(1345 -1137) rotate(90)" fill="#dfe7f5"/>
        </g>
        <g id="Group_43" data-name="Group 43" transform="translate(766 10)">
          <circle id="Ellipse_35-11" data-name="Ellipse 35" cx="22.5" cy="22.5" r="22.5" transform="translate(1345 -1768) rotate(90)" fill="#dfe7f5"/>
          <circle id="Ellipse_36-11" data-name="Ellipse 36" cx="22.5" cy="22.5" r="22.5" transform="translate(1345 -1698) rotate(90)" fill="#dfe7f5"/>
          <circle id="Ellipse_40-11" data-name="Ellipse 40" cx="22.5" cy="22.5" r="22.5" transform="translate(1345 -1628) rotate(90)" fill="#dfe7f5"/>
          <circle id="Ellipse_41-11" data-name="Ellipse 41" cx="22.5" cy="22.5" r="22.5" transform="translate(1345 -1558) rotate(90)" fill="#dfe7f5"/>
          <circle id="Ellipse_42-11" data-name="Ellipse 42" cx="22.5" cy="22.5" r="22.5" transform="translate(1345 -1487) rotate(90)" fill="#dfe7f5"/>
          <circle id="Ellipse_43-11" data-name="Ellipse 43" cx="22.5" cy="22.5" r="22.5" transform="translate(1345 -1417) rotate(90)" fill="#dfe7f5"/>
          <circle id="Ellipse_44-11" data-name="Ellipse 44" cx="22.5" cy="22.5" r="22.5" transform="translate(1345 -1347) rotate(90)" fill="#dfe7f5"/>
          <circle id="Ellipse_45-11" data-name="Ellipse 45" cx="22.5" cy="22.5" r="22.5" transform="translate(1345 -1277) rotate(90)" fill="#dfe7f5"/>
          <circle id="Ellipse_46-11" data-name="Ellipse 46" cx="22.5" cy="22.5" r="22.5" transform="translate(1345 -1207) rotate(90)" fill="#dfe7f5"/>
          <circle id="Ellipse_47-11" data-name="Ellipse 47" cx="22.5" cy="22.5" r="22.5" transform="translate(1345 -1137) rotate(90)" fill="#dfe7f5"/>
        </g>
        <g id="Group_44" data-name="Group 44" transform="translate(836 10)">
          <circle id="Ellipse_35-12" data-name="Ellipse 35" cx="22.5" cy="22.5" r="22.5" transform="translate(1345 -1768) rotate(90)" fill="#dfe7f5"/>
          <circle id="Ellipse_36-12" data-name="Ellipse 36" cx="22.5" cy="22.5" r="22.5" transform="translate(1345 -1698) rotate(90)" fill="#dfe7f5"/>
          <circle id="Ellipse_40-12" data-name="Ellipse 40" cx="22.5" cy="22.5" r="22.5" transform="translate(1345 -1628) rotate(90)" fill="#dfe7f5"/>
          <circle id="Ellipse_41-12" data-name="Ellipse 41" cx="22.5" cy="22.5" r="22.5" transform="translate(1345 -1558) rotate(90)" fill="#dfe7f5"/>
          <circle id="Ellipse_42-12" data-name="Ellipse 42" cx="22.5" cy="22.5" r="22.5" transform="translate(1345 -1487) rotate(90)" fill="#dfe7f5"/>
          <circle id="Ellipse_43-12" data-name="Ellipse 43" cx="22.5" cy="22.5" r="22.5" transform="translate(1345 -1417) rotate(90)" fill="#dfe7f5"/>
          <circle id="Ellipse_44-12" data-name="Ellipse 44" cx="22.5" cy="22.5" r="22.5" transform="translate(1345 -1347) rotate(90)" fill="#dfe7f5"/>
          <circle id="Ellipse_45-12" data-name="Ellipse 45" cx="22.5" cy="22.5" r="22.5" transform="translate(1345 -1277) rotate(90)" fill="#dfe7f5"/>
          <circle id="Ellipse_46-12" data-name="Ellipse 46" cx="22.5" cy="22.5" r="22.5" transform="translate(1345 -1207) rotate(90)" fill="#dfe7f5"/>
          <circle id="Ellipse_47-12" data-name="Ellipse 47" cx="22.5" cy="22.5" r="22.5" transform="translate(1345 -1137) rotate(90)" fill="#dfe7f5"/>
        </g>
        <g id="Group_45" data-name="Group 45" transform="translate(906 10)">
          <circle id="Ellipse_35-13" data-name="Ellipse 35" cx="22.5" cy="22.5" r="22.5" transform="translate(1345 -1768) rotate(90)" fill="#dfe7f5"/>
          <circle id="Ellipse_36-13" data-name="Ellipse 36" cx="22.5" cy="22.5" r="22.5" transform="translate(1345 -1698) rotate(90)" fill="#dfe7f5"/>
          <circle id="Ellipse_40-13" data-name="Ellipse 40" cx="22.5" cy="22.5" r="22.5" transform="translate(1345 -1628) rotate(90)" fill="#dfe7f5"/>
          <circle id="Ellipse_41-13" data-name="Ellipse 41" cx="22.5" cy="22.5" r="22.5" transform="translate(1345 -1558) rotate(90)" fill="#dfe7f5"/>
          <circle id="Ellipse_42-13" data-name="Ellipse 42" cx="22.5" cy="22.5" r="22.5" transform="translate(1345 -1487) rotate(90)" fill="#dfe7f5"/>
          <circle id="Ellipse_43-13" data-name="Ellipse 43" cx="22.5" cy="22.5" r="22.5" transform="translate(1345 -1417) rotate(90)" fill="#dfe7f5"/>
          <circle id="Ellipse_44-13" data-name="Ellipse 44" cx="22.5" cy="22.5" r="22.5" transform="translate(1345 -1347) rotate(90)" fill="#dfe7f5"/>
          <circle id="Ellipse_45-13" data-name="Ellipse 45" cx="22.5" cy="22.5" r="22.5" transform="translate(1345 -1277) rotate(90)" fill="#dfe7f5"/>
          <circle id="Ellipse_46-13" data-name="Ellipse 46" cx="22.5" cy="22.5" r="22.5" transform="translate(1345 -1207) rotate(90)" fill="#dfe7f5"/>
          <circle id="Ellipse_47-13" data-name="Ellipse 47" cx="22.5" cy="22.5" r="22.5" transform="translate(1345 -1137) rotate(90)" fill="#dfe7f5"/>
        </g>
        <g id="Group_46" data-name="Group 46" transform="translate(976 10)">
          <circle id="Ellipse_35-14" data-name="Ellipse 35" cx="22.5" cy="22.5" r="22.5" transform="translate(1345 -1768) rotate(90)" fill="#dfe7f5"/>
          <circle id="Ellipse_36-14" data-name="Ellipse 36" cx="22.5" cy="22.5" r="22.5" transform="translate(1345 -1698) rotate(90)" fill="#dfe7f5"/>
          <circle id="Ellipse_40-14" data-name="Ellipse 40" cx="22.5" cy="22.5" r="22.5" transform="translate(1345 -1628) rotate(90)" fill="#dfe7f5"/>
          <circle id="Ellipse_41-14" data-name="Ellipse 41" cx="22.5" cy="22.5" r="22.5" transform="translate(1345 -1558) rotate(90)" fill="#dfe7f5"/>
          <circle id="Ellipse_42-14" data-name="Ellipse 42" cx="22.5" cy="22.5" r="22.5" transform="translate(1345 -1487) rotate(90)" fill="#dfe7f5"/>
          <circle id="Ellipse_43-14" data-name="Ellipse 43" cx="22.5" cy="22.5" r="22.5" transform="translate(1345 -1417) rotate(90)" fill="#dfe7f5"/>
          <circle id="Ellipse_44-14" data-name="Ellipse 44" cx="22.5" cy="22.5" r="22.5" transform="translate(1345 -1347) rotate(90)" fill="#dfe7f5"/>
          <circle id="Ellipse_45-14" data-name="Ellipse 45" cx="22.5" cy="22.5" r="22.5" transform="translate(1345 -1277) rotate(90)" fill="#dfe7f5"/>
          <circle id="Ellipse_46-14" data-name="Ellipse 46" cx="22.5" cy="22.5" r="22.5" transform="translate(1345 -1207) rotate(90)" fill="#dfe7f5"/>
          <circle id="Ellipse_47-14" data-name="Ellipse 47" cx="22.5" cy="22.5" r="22.5" transform="translate(1345 -1137) rotate(90)" fill="#dfe7f5"/>
        </g>
        <g id="Group_47" data-name="Group 47" transform="translate(1046 10)">
          <circle id="Ellipse_35-15" data-name="Ellipse 35" cx="22.5" cy="22.5" r="22.5" transform="translate(1345 -1768) rotate(90)" fill="#dfe7f5"/>
          <circle id="Ellipse_36-15" data-name="Ellipse 36" cx="22.5" cy="22.5" r="22.5" transform="translate(1345 -1698) rotate(90)" fill="#dfe7f5"/>
          <circle id="Ellipse_40-15" data-name="Ellipse 40" cx="22.5" cy="22.5" r="22.5" transform="translate(1345 -1628) rotate(90)" fill="#dfe7f5"/>
          <circle id="Ellipse_41-15" data-name="Ellipse 41" cx="22.5" cy="22.5" r="22.5" transform="translate(1345 -1558) rotate(90)" fill="#dfe7f5"/>
          <circle id="Ellipse_42-15" data-name="Ellipse 42" cx="22.5" cy="22.5" r="22.5" transform="translate(1345 -1487) rotate(90)" fill="#dfe7f5"/>
          <circle id="Ellipse_43-15" data-name="Ellipse 43" cx="22.5" cy="22.5" r="22.5" transform="translate(1345 -1417) rotate(90)" fill="#dfe7f5"/>
          <circle id="Ellipse_44-15" data-name="Ellipse 44" cx="22.5" cy="22.5" r="22.5" transform="translate(1345 -1347) rotate(90)" fill="#dfe7f5"/>
          <circle id="Ellipse_45-15" data-name="Ellipse 45" cx="22.5" cy="22.5" r="22.5" transform="translate(1345 -1277) rotate(90)" fill="#dfe7f5"/>
          <circle id="Ellipse_46-15" data-name="Ellipse 46" cx="22.5" cy="22.5" r="22.5" transform="translate(1345 -1207) rotate(90)" fill="#dfe7f5"/>
          <circle id="Ellipse_47-15" data-name="Ellipse 47" cx="22.5" cy="22.5" r="22.5" transform="translate(1345 -1137) rotate(90)" fill="#dfe7f5"/>
        </g>
        <g id="Group_48" data-name="Group 48" transform="translate(1116 9)">
          <circle id="Ellipse_35-16" data-name="Ellipse 35" cx="22.5" cy="22.5" r="22.5" transform="translate(1345 -1768) rotate(90)" fill="#dfe7f5"/>
          <circle id="Ellipse_36-16" data-name="Ellipse 36" cx="22.5" cy="22.5" r="22.5" transform="translate(1345 -1698) rotate(90)" fill="#dfe7f5"/>
          <circle id="Ellipse_40-16" data-name="Ellipse 40" cx="22.5" cy="22.5" r="22.5" transform="translate(1345 -1628) rotate(90)" fill="#dfe7f5"/>
          <circle id="Ellipse_41-16" data-name="Ellipse 41" cx="22.5" cy="22.5" r="22.5" transform="translate(1345 -1558) rotate(90)" fill="#dfe7f5"/>
          <circle id="Ellipse_42-16" data-name="Ellipse 42" cx="22.5" cy="22.5" r="22.5" transform="translate(1345 -1487) rotate(90)" fill="#dfe7f5"/>
          <circle id="Ellipse_43-16" data-name="Ellipse 43" cx="22.5" cy="22.5" r="22.5" transform="translate(1345 -1417) rotate(90)" fill="#dfe7f5"/>
          <circle id="Ellipse_44-16" data-name="Ellipse 44" cx="22.5" cy="22.5" r="22.5" transform="translate(1345 -1347) rotate(90)" fill="#dfe7f5"/>
          <circle id="Ellipse_45-16" data-name="Ellipse 45" cx="22.5" cy="22.5" r="22.5" transform="translate(1345 -1277) rotate(90)" fill="#dfe7f5"/>
          <circle id="Ellipse_46-16" data-name="Ellipse 46" cx="22.5" cy="22.5" r="22.5" transform="translate(1345 -1207) rotate(90)" fill="#dfe7f5"/>
          <circle id="Ellipse_47-16" data-name="Ellipse 47" cx="22.5" cy="22.5" r="22.5" transform="translate(1345 -1137) rotate(90)" fill="#dfe7f5"/>
        </g>
        <g id="Group_49" data-name="Group 49" transform="translate(1186 10)">
          <circle id="Ellipse_35-17" data-name="Ellipse 35" cx="22.5" cy="22.5" r="22.5" transform="translate(1345 -1768) rotate(90)" fill="#dfe7f5"/>
          <circle id="Ellipse_36-17" data-name="Ellipse 36" cx="22.5" cy="22.5" r="22.5" transform="translate(1345 -1698) rotate(90)" fill="#dfe7f5"/>
          <circle id="Ellipse_40-17" data-name="Ellipse 40" cx="22.5" cy="22.5" r="22.5" transform="translate(1345 -1628) rotate(90)" fill="#dfe7f5"/>
          <circle id="Ellipse_41-17" data-name="Ellipse 41" cx="22.5" cy="22.5" r="22.5" transform="translate(1345 -1558) rotate(90)" fill="#dfe7f5"/>
          <circle id="Ellipse_42-17" data-name="Ellipse 42" cx="22.5" cy="22.5" r="22.5" transform="translate(1345 -1487) rotate(90)" fill="#dfe7f5"/>
          <circle id="Ellipse_43-17" data-name="Ellipse 43" cx="22.5" cy="22.5" r="22.5" transform="translate(1345 -1417) rotate(90)" fill="#dfe7f5"/>
          <circle id="Ellipse_44-17" data-name="Ellipse 44" cx="22.5" cy="22.5" r="22.5" transform="translate(1345 -1347) rotate(90)" fill="#dfe7f5"/>
          <circle id="Ellipse_45-17" data-name="Ellipse 45" cx="22.5" cy="22.5" r="22.5" transform="translate(1345 -1277) rotate(90)" fill="#dfe7f5"/>
          <circle id="Ellipse_46-17" data-name="Ellipse 46" cx="22.5" cy="22.5" r="22.5" transform="translate(1345 -1207) rotate(90)" fill="#dfe7f5"/>
          <circle id="Ellipse_47-17" data-name="Ellipse 47" cx="22.5" cy="22.5" r="22.5" transform="translate(1345 -1137) rotate(90)" fill="#dfe7f5"/>
        </g>
        <g id="Group_50" data-name="Group 50" transform="translate(1256 10)">
          <circle id="Ellipse_35-18" data-name="Ellipse 35" cx="22.5" cy="22.5" r="22.5" transform="translate(1345 -1768) rotate(90)" fill="#dfe7f5"/>
          <circle id="Ellipse_36-18" data-name="Ellipse 36" cx="22.5" cy="22.5" r="22.5" transform="translate(1345 -1698) rotate(90)" fill="#dfe7f5"/>
          <circle id="Ellipse_40-18" data-name="Ellipse 40" cx="22.5" cy="22.5" r="22.5" transform="translate(1345 -1628) rotate(90)" fill="#dfe7f5"/>
          <circle id="Ellipse_41-18" data-name="Ellipse 41" cx="22.5" cy="22.5" r="22.5" transform="translate(1345 -1558) rotate(90)" fill="#dfe7f5"/>
          <circle id="Ellipse_42-18" data-name="Ellipse 42" cx="22.5" cy="22.5" r="22.5" transform="translate(1345 -1487) rotate(90)" fill="#dfe7f5"/>
          <circle id="Ellipse_43-18" data-name="Ellipse 43" cx="22.5" cy="22.5" r="22.5" transform="translate(1345 -1417) rotate(90)" fill="#dfe7f5"/>
          <circle id="Ellipse_44-18" data-name="Ellipse 44" cx="22.5" cy="22.5" r="22.5" transform="translate(1345 -1347) rotate(90)" fill="#dfe7f5"/>
          <circle id="Ellipse_45-18" data-name="Ellipse 45" cx="22.5" cy="22.5" r="22.5" transform="translate(1345 -1277) rotate(90)" fill="#dfe7f5"/>
          <circle id="Ellipse_46-18" data-name="Ellipse 46" cx="22.5" cy="22.5" r="22.5" transform="translate(1345 -1207) rotate(90)" fill="#dfe7f5"/>
          <circle id="Ellipse_47-18" data-name="Ellipse 47" cx="22.5" cy="22.5" r="22.5" transform="translate(1345 -1137) rotate(90)" fill="#dfe7f5"/>
        </g>
        <g id="Group_51" data-name="Group 51" transform="translate(1326 10)">
          <circle id="Ellipse_35-19" data-name="Ellipse 35" cx="22.5" cy="22.5" r="22.5" transform="translate(1345 -1768) rotate(90)" fill="#dfe7f5"/>
          <circle id="Ellipse_36-19" data-name="Ellipse 36" cx="22.5" cy="22.5" r="22.5" transform="translate(1345 -1698) rotate(90)" fill="#dfe7f5"/>
          <circle id="Ellipse_40-19" data-name="Ellipse 40" cx="22.5" cy="22.5" r="22.5" transform="translate(1345 -1628) rotate(90)" fill="#dfe7f5"/>
          <circle id="Ellipse_41-19" data-name="Ellipse 41" cx="22.5" cy="22.5" r="22.5" transform="translate(1345 -1558) rotate(90)" fill="#dfe7f5"/>
          <circle id="Ellipse_42-19" data-name="Ellipse 42" cx="22.5" cy="22.5" r="22.5" transform="translate(1345 -1487) rotate(90)" fill="#dfe7f5"/>
          <circle id="Ellipse_43-19" data-name="Ellipse 43" cx="22.5" cy="22.5" r="22.5" transform="translate(1345 -1417) rotate(90)" fill="#dfe7f5"/>
          <circle id="Ellipse_44-19" data-name="Ellipse 44" cx="22.5" cy="22.5" r="22.5" transform="translate(1345 -1347) rotate(90)" fill="#dfe7f5"/>
          <circle id="Ellipse_45-19" data-name="Ellipse 45" cx="22.5" cy="22.5" r="22.5" transform="translate(1345 -1277) rotate(90)" fill="#dfe7f5"/>
          <circle id="Ellipse_46-19" data-name="Ellipse 46" cx="22.5" cy="22.5" r="22.5" transform="translate(1345 -1207) rotate(90)" fill="#dfe7f5"/>
          <circle id="Ellipse_47-19" data-name="Ellipse 47" cx="22.5" cy="22.5" r="22.5" transform="translate(1345 -1137) rotate(90)" fill="#dfe7f5"/>
        </g>
        <g id="Group_52" data-name="Group 52" transform="translate(1396 10)">
          <circle id="Ellipse_35-20" data-name="Ellipse 35" cx="22.5" cy="22.5" r="22.5" transform="translate(1345 -1768) rotate(90)" fill="#dfe7f5"/>
          <circle id="Ellipse_36-20" data-name="Ellipse 36" cx="22.5" cy="22.5" r="22.5" transform="translate(1345 -1698) rotate(90)" fill="#dfe7f5"/>
          <circle id="Ellipse_40-20" data-name="Ellipse 40" cx="22.5" cy="22.5" r="22.5" transform="translate(1345 -1628) rotate(90)" fill="#dfe7f5"/>
          <circle id="Ellipse_41-20" data-name="Ellipse 41" cx="22.5" cy="22.5" r="22.5" transform="translate(1345 -1558) rotate(90)" fill="#dfe7f5"/>
          <circle id="Ellipse_42-20" data-name="Ellipse 42" cx="22.5" cy="22.5" r="22.5" transform="translate(1345 -1487) rotate(90)" fill="#dfe7f5"/>
          <circle id="Ellipse_43-20" data-name="Ellipse 43" cx="22.5" cy="22.5" r="22.5" transform="translate(1345 -1417) rotate(90)" fill="#dfe7f5"/>
          <circle id="Ellipse_44-20" data-name="Ellipse 44" cx="22.5" cy="22.5" r="22.5" transform="translate(1345 -1347) rotate(90)" fill="#dfe7f5"/>
          <circle id="Ellipse_45-20" data-name="Ellipse 45" cx="22.5" cy="22.5" r="22.5" transform="translate(1345 -1277) rotate(90)" fill="#dfe7f5"/>
          <circle id="Ellipse_46-20" data-name="Ellipse 46" cx="22.5" cy="22.5" r="22.5" transform="translate(1345 -1207) rotate(90)" fill="#dfe7f5"/>
          <circle id="Ellipse_47-20" data-name="Ellipse 47" cx="22.5" cy="22.5" r="22.5" transform="translate(1345 -1137) rotate(90)" fill="#dfe7f5"/>
        </g>
        <g id="Group_54" data-name="Group 54" transform="translate(-6 3)">
          <g id="Group_32" data-name="Group 32" transform="translate(-18 7)">
            <circle id="Ellipse_35-21" data-name="Ellipse 35" cx="22.5" cy="22.5" r="22.5" transform="translate(1345 -1768) rotate(90)" fill="#fff"/>
            <circle id="Ellipse_36-21" data-name="Ellipse 36" cx="22.5" cy="22.5" r="22.5" transform="translate(1345 -1698) rotate(90)" fill="#fff"/>
            <circle id="Ellipse_40-21" data-name="Ellipse 40" cx="22.5" cy="22.5" r="22.5" transform="translate(1345 -1628) rotate(90)" fill="#fff"/>
            <circle id="Ellipse_41-21" data-name="Ellipse 41" cx="22.5" cy="22.5" r="22.5" transform="translate(1345 -1558) rotate(90)" fill="#fff"/>
            <circle id="Ellipse_42-21" data-name="Ellipse 42" cx="22.5" cy="22.5" r="22.5" transform="translate(1345 -1487) rotate(90)" fill="#fff"/>
            <circle id="Ellipse_43-21" data-name="Ellipse 43" cx="22.5" cy="22.5" r="22.5" transform="translate(1345 -1417) rotate(90)" fill="#fff"/>
            <circle id="Ellipse_44-21" data-name="Ellipse 44" cx="22.5" cy="22.5" r="22.5" transform="translate(1345 -1347) rotate(90)" fill="#fff"/>
            <circle id="Ellipse_45-21" data-name="Ellipse 45" cx="22.5" cy="22.5" r="22.5" transform="translate(1345 -1277) rotate(90)" fill="#fff"/>
            <circle id="Ellipse_46-21" data-name="Ellipse 46" cx="22.5" cy="22.5" r="22.5" transform="translate(1345 -1207) rotate(90)" fill="#fff"/>
            <circle id="Ellipse_47-21" data-name="Ellipse 47" cx="22.5" cy="22.5" r="22.5" transform="translate(1345 -1137) rotate(90)" fill="#fff"/>
          </g>
          <g id="Group_53" data-name="Group 53">
            <text id="_1-2" data-name="1" transform="translate(1303.5 -1729)" font-size="30" font-family="NirmalaUI-Bold, Nirmala UI" font-weight="700"><tspan x="-8.628" y="0">1</tspan></text>
            <text id="_2-2" data-name="2" transform="translate(1304.5 -1659)" font-size="30" font-family="NirmalaUI-Bold, Nirmala UI" font-weight="700"><tspan x="-8.628" y="0">2</tspan></text>
            <text id="_3-2" data-name="3" transform="translate(1301.5 -1589)" font-size="30" font-family="NirmalaUI-Bold, Nirmala UI" font-weight="700"><tspan x="-8.628" y="0">3</tspan></text>
            <text id="_4-2" data-name="4" transform="translate(1304.5 -1519)" font-size="30" font-family="NirmalaUI-Bold, Nirmala UI" font-weight="700"><tspan x="-8.628" y="0">4</tspan></text>
            <text id="_5-2" data-name="5" transform="translate(1306.5 -1449)" font-size="30" font-family="NirmalaUI-Bold, Nirmala UI" font-weight="700"><tspan x="-8.628" y="0">5</tspan></text>
            <text id="_6-2" data-name="6" transform="translate(1303.5 -1380)" font-size="30" font-family="NirmalaUI-Bold, Nirmala UI" font-weight="700"><tspan x="-8.628" y="0">6</tspan></text>
            <text id="_7-2" data-name="7" transform="translate(1303.5 -1310)" font-size="30" font-family="NirmalaUI-Bold, Nirmala UI" font-weight="700"><tspan x="-8.628" y="0">7</tspan></text>
            <text id="_8-2" data-name="8" transform="translate(1304.5 -1239)" font-size="30" font-family="NirmalaUI-Bold, Nirmala UI" font-weight="700"><tspan x="-8.628" y="0">8</tspan></text>
            <text id="_9-2" data-name="9" transform="translate(1306.5 -1168)" font-size="30" font-family="NirmalaUI-Bold, Nirmala UI" font-weight="700"><tspan x="-8.628" y="0">9</tspan></text>
            <text id="_10-2" data-name="10" transform="translate(1304.5 -1097)" font-size="30" font-family="NirmalaUI-Bold, Nirmala UI" font-weight="700"><tspan x="-17.256" y="0">10</tspan></text>
          </g>
        </g>
        <rect id="Rectangle_7" data-name="Rectangle 7" width="37" height="35" rx="5" transform="translate(1284 -1818)" fill="#dfe7f5"/>
      </g>
    </g>
  </g>
</svg>
