<?xml version="1.0" encoding="UTF-8"?>
<!DOCTYPE svg PUBLIC "-//W3C//DTD SVG 1.1//EN" "http://www.w3.org/Graphics/SVG/1.1/DTD/svg11.dtd">
<!-- Creator: CorelDRAW X7 -->
<svg xmlns="http://www.w3.org/2000/svg" xml:space="preserve" width="210mm" height="297mm" version="1.1" style="shape-rendering:geometricPrecision; text-rendering:geometricPrecision; image-rendering:optimizeQuality; fill-rule:evenodd; clip-rule:evenodd"
viewBox="0 0 21000 29700"
 xmlns:xlink="http://www.w3.org/1999/xlink"
 enable-background="new 0 0 24 24">
 <defs>
  <style type="text/css">
   <![CDATA[
    .fil0 {fill:#B2B3B3}
   ]]>
  </style>
 </defs>
 <g id="Layer_x0020_1">
  <metadata id="CorelCorpID_0Corel-Layer"/>
  <g id="github.svg">
   <path class="fil0" d="M9983 2198c-5190,0 -9393,4132 -9393,9231 0,4079 2691,7539 6423,8758 469,87 641,-199 641,-444 0,-219 -8,-800 -12,-1570 -2612,557 -3164,-1238 -3164,-1238 -427,-1066 -1045,-1350 -1045,-1350 -851,-573 66,-561 66,-561 943,64 1439,952 1439,952 837,1410 2198,1003 2736,767 84,-597 326,-1003 595,-1234 -2086,-231 -4279,-1025 -4279,-4562 0,-1007 364,-1831 967,-2477 -106,-233 -424,-1172 81,-2443 0,0 787,-248 2584,946 752,-205 1550,-306 2348,-311 799,5 1598,106 2349,311 1785,-1194 2572,-946 2572,-946 505,1271 187,2210 93,2443 599,646 964,1470 964,2477 0,3546 -2196,4327 -4286,4554 328,277 633,843 633,1708 0,1235 -11,2228 -11,2527 0,243 165,531 646,439 3758,-1212 6447,-4674 6447,-8746 0,-5099 -4207,-9231 -9394,-9231l0 0z"/>
  </g>
 </g>
</svg>
