<?xml version="1.0" encoding="UTF-8"?>
<!DOCTYPE svg PUBLIC "-//W3C//DTD SVG 1.1//EN" "http://www.w3.org/Graphics/SVG/1.1/DTD/svg11.dtd">
<!-- Creator: CorelDRAW X7 -->
<svg xmlns="http://www.w3.org/2000/svg" xml:space="preserve" width="210mm" height="297mm" version="1.1" style="shape-rendering:geometricPrecision; text-rendering:geometricPrecision; image-rendering:optimizeQuality; fill-rule:evenodd; clip-rule:evenodd"
viewBox="0 0 21000 29700"
 xmlns:xlink="http://www.w3.org/1999/xlink">
 <defs>
  <style type="text/css">
   <![CDATA[
    .fil0 {fill:#B2B3B3}
   ]]>
  </style>
 </defs>
 <g id="Layer_x0020_1">
  <metadata id="CorelCorpID_0Corel-Layer"/>
  <path id="linkedin.svg" class="fil0" d="M9331 2917c-4653,0 -8427,3774 -8427,8427 0,4654 3774,8428 8427,8428 4654,0 8428,-3774 8428,-8428 0,-4653 -3774,-8427 -8428,-8427zm-2448 12740l-2053 0 0 -6175 2053 0 0 6175zm-1027 -7018l-13 0c-689,0 -1134,-474 -1134,-1067 0,-606 459,-1067 1161,-1067 702,0 1134,461 1148,1067 0,593 -446,1067 -1162,1067zm8427 7018l-2052 0 0 -3304c0,-830 -297,-1396 -1040,-1396 -567,0 -904,382 -1053,751 -54,131 -67,316 -67,500l0 3449 -2053 0c0,0 27,-5596 0,-6175l2053 0 0 874c272,-421 760,-1019 1849,-1019 1351,0 2363,882 2363,2779l0 3541zm0 0z"/>
 </g>
</svg>
